<svg width="23.81" height="34" viewBox="0 0 25 36" fill="none" xmlns="http://www.w3.org/2000/svg">
<path d="M12.6409 32.2242C12.7132 32.2965 12.8107 32.3348 12.9086 32.3348C13.0064 32.3348 13.0998 32.2965 13.1763 32.2242L15.3013 30.1033C16.2746 29.1555 16.623 28.0251 16.2278 27.0773C15.926 26.359 15.1993 25.8914 14.4979 25.9C13.8688 25.9128 13.3165 26.257 12.9127 26.8647C12.5131 26.257 11.9563 25.9128 11.3275 25.9C10.5581 25.9 9.89526 26.3589 9.5976 27.0773C9.20241 28.0251 9.5466 29.1555 10.5199 30.0991L12.6409 32.2242ZM10.2864 27.3663C10.4648 26.937 10.8645 26.6524 11.2851 26.6524H11.302C11.8206 26.6652 12.2753 27.0945 12.5472 27.8383C12.6578 28.1359 13.1422 28.1359 13.2528 27.8383C13.5291 27.0945 13.9838 26.6652 14.4979 26.6524C14.9144 26.6269 15.3351 26.9329 15.518 27.3663C15.7943 28.0251 15.518 28.8285 14.7573 29.5637L12.8958 31.4252L11.0344 29.5637C10.2864 28.8282 10.0101 28.0251 10.2864 27.3663Z" fill="white" stroke="white" stroke-width="0.25"/>
<path d="M24.8134 34.6172V23.1548V23.1293V23.1252C24.8134 23.07 24.8006 23.019 24.7793 22.968C24.7793 22.9639 24.7793 22.9594 24.7751 22.9553L22.0168 17.6127C21.9531 17.4852 21.8215 17.4087 21.6809 17.4087H4.12796C3.98773 17.4087 3.85581 17.4893 3.79207 17.6127L1.04239 22.9594C1.0169 23.0104 1 23.0655 1 23.1251V34.6217C1 34.8298 1.16988 34.9999 1.37829 34.9999H24.4352C24.6436 34.9955 24.8134 34.8256 24.8134 34.6172ZM4.362 18.1609H21.4558L23.8189 22.751H2.00296L4.362 18.1609ZM24.0613 34.2438H1.75653V23.5077H24.0567V34.2438H24.0613Z" fill="white" stroke="white" stroke-width="0.25"/>
<path d="M17.3122 20.0776H8.5061C8.29798 20.0776 8.12781 20.2475 8.12781 20.4559C8.12781 20.664 8.29768 20.8342 8.5061 20.8342H17.3122C17.5203 20.8342 17.6905 20.6643 17.6905 20.4559C17.6863 20.2434 17.5206 20.0776 17.3122 20.0776Z" fill="white" stroke="white" stroke-width="0.25"/>
<path d="M12.335 7.70115L12.2586 8.0412C10.1632 8.35574 8.56104 10.1704 8.56104 12.3126C8.56104 14.714 10.5118 16.6648 12.9132 16.6648C15.3104 16.6648 17.2566 14.714 17.2566 12.3126C17.2566 11.688 17.1205 11.093 16.8656 10.5318C17.5839 9.49891 18.1575 8.75089 18.5782 8.31335C18.9565 7.91372 19.2752 7.70145 19.5557 7.51441C19.9553 7.24671 20.3333 6.99174 20.6606 6.34578C20.8732 5.92509 21.0007 5.46586 21.0475 4.96867L21.3452 5.04931C21.3793 5.0579 21.4089 5.06205 21.443 5.06205C21.5067 5.06205 21.5746 5.04516 21.6301 5.01106C21.7152 4.96007 21.7789 4.87943 21.8044 4.7816L22.2974 2.94145C22.3526 2.74164 22.2337 2.53352 22.0297 2.48252L16.5386 1.01206C16.3346 0.96107 16.1306 1.0758 16.0752 1.27977L15.5822 3.11991C15.5567 3.21775 15.5694 3.31973 15.6204 3.40481C15.6714 3.4899 15.752 3.55364 15.8499 3.57914L16.2706 3.68972L13.2956 6.12071C12.8108 6.5325 12.4708 7.09338 12.335 7.70115ZM12.9129 15.9168C10.9281 15.9168 9.31286 14.3017 9.31286 12.3168C9.31286 10.4639 10.7578 8.89558 12.6024 8.74675C12.6279 8.74675 12.6493 8.7426 12.6703 8.734C13.4652 8.68301 14.2131 8.89558 14.8591 9.31626C14.5487 10.0174 14.3279 10.621 14.3279 10.8887C14.3279 11.0331 14.3279 11.4241 14.6083 11.7346C14.7017 11.8407 14.957 12.0746 15.3139 12.0746C15.3353 12.0746 15.3608 12.0746 15.3818 12.0705C15.8025 12.0322 16.1043 11.6498 16.2149 11.4841C16.2617 11.4162 16.3041 11.3524 16.3465 11.2887C16.4444 11.6201 16.5037 11.9602 16.5037 12.313C16.5043 14.3016 14.8935 15.9168 12.9129 15.9168ZM16.7082 1.83144L21.4727 3.10655L21.175 4.22008L16.4106 2.94497L16.7082 1.83144ZM17.1674 3.92682L20.2998 4.76402C20.2702 5.21464 20.1765 5.63529 19.9894 6.00088C19.7514 6.47255 19.505 6.63413 19.135 6.8808C18.8374 7.08062 18.4677 7.32698 18.0301 7.78623C17.4606 8.38538 16.6403 9.48612 15.5863 11.0589C15.4843 11.2119 15.3569 11.3097 15.3142 11.3139C15.3056 11.3139 15.2122 11.2756 15.1654 11.2246C15.0761 11.1268 15.0761 10.9655 15.0761 10.8846C15.0889 10.6848 15.4927 9.57121 16.3767 7.89234V7.88374C16.3853 7.86684 16.3853 7.84549 16.3936 7.82415C16.4022 7.79865 16.415 7.76901 16.415 7.74351C16.4277 7.59469 16.3512 7.44586 16.211 7.37382C15.8624 7.19534 15.5226 7.16125 15.1995 7.27183C14.8339 7.39516 14.5238 7.70526 14.2475 8.18553C13.8565 8.05805 13.4486 7.99846 13.032 7.98156L13.0616 7.84993C13.1636 7.3993 13.4144 6.98275 13.7672 6.6813L17.1674 3.92682ZM14.9531 8.48704C15.1147 8.21934 15.2846 8.05361 15.4503 7.99402C15.463 7.98987 15.4758 7.98987 15.4885 7.98542C15.3824 8.19799 15.276 8.41055 15.174 8.62726C15.1017 8.58487 15.0296 8.52973 14.9531 8.48704Z" fill="white" stroke="white" stroke-width="0.25"/>
</svg>
