<svg width="150" height="150" viewBox="0 0 150 150" fill="none" xmlns="http://www.w3.org/2000/svg">
<path d="M150 75C150 65.1509 148.06 55.3982 144.291 46.2987C140.522 37.1993 134.997 28.9314 128.033 21.967C121.069 15.0026 112.801 9.47813 103.701 5.70903C94.6018 1.93993 84.8491 -1.60463e-06 75 0C65.1508 1.60463e-06 55.3981 1.93994 46.2987 5.70904C37.1993 9.47815 28.9314 15.0026 21.967 21.967C15.0026 28.9314 9.47813 37.1993 5.70903 46.2988C1.93993 55.3982 -3.20925e-06 65.1509 0 75L75 75H150Z" fill="#4FDB76"/>
<path d="M150 75C150 61.4866 146.349 48.2242 139.433 36.6148C132.517 25.0054 122.592 15.4802 110.709 9.0463C98.8252 2.61235 85.4242 -0.491386 71.9221 0.0631819C58.4201 0.61775 45.3187 4.81001 34.0029 12.1968L75 75H150Z" fill="#FDFF8A"/>
<path d="M150 75C150 62.3347 146.793 49.8757 140.677 38.7848C134.561 27.6939 125.737 18.3324 115.026 11.5733L75 75H150Z" fill="#FF4444"/>
<path d="M135 75C135 59.087 128.679 43.8258 117.426 32.5736C106.174 21.3214 90.913 15 75 15C59.087 15 43.8258 21.3214 32.5736 32.5736C21.3214 43.8258 15 59.087 15 75L75 75H135Z" fill="white"/>
<path d="M62.4707 65V55.0059H64.5898V63.25H68.6436V65H62.4707ZM77.168 61.165C77.168 61.8031 77.0814 62.3682 76.9082 62.8604C76.7396 63.3525 76.4912 63.7695 76.1631 64.1113C75.8395 64.4486 75.4476 64.7038 74.9873 64.877C74.5316 65.0501 74.0166 65.1367 73.4424 65.1367C72.9046 65.1367 72.4102 65.0501 71.959 64.877C71.5124 64.7038 71.1227 64.4486 70.79 64.1113C70.4619 63.7695 70.2067 63.3525 70.0244 62.8604C69.8467 62.3682 69.7578 61.8031 69.7578 61.165C69.7578 60.3174 69.9082 59.5996 70.209 59.0117C70.5098 58.4238 70.9382 57.9772 71.4941 57.6719C72.0501 57.3665 72.7132 57.2139 73.4834 57.2139C74.1989 57.2139 74.8324 57.3665 75.3838 57.6719C75.9398 57.9772 76.375 58.4238 76.6895 59.0117C77.0085 59.5996 77.168 60.3174 77.168 61.165ZM71.8838 61.165C71.8838 61.6663 71.9385 62.0879 72.0479 62.4297C72.1572 62.7715 72.3281 63.029 72.5605 63.2021C72.793 63.3753 73.096 63.4619 73.4697 63.4619C73.8389 63.4619 74.1374 63.3753 74.3652 63.2021C74.5977 63.029 74.7663 62.7715 74.8711 62.4297C74.9805 62.0879 75.0352 61.6663 75.0352 61.165C75.0352 60.6592 74.9805 60.2399 74.8711 59.9072C74.7663 59.57 74.5977 59.3171 74.3652 59.1484C74.1328 58.9798 73.8298 58.8955 73.4561 58.8955C72.9046 58.8955 72.5036 59.0846 72.2529 59.4629C72.0068 59.8411 71.8838 60.4085 71.8838 61.165ZM85.1729 65L84.585 62.3271C84.5531 62.1676 84.5007 61.9329 84.4277 61.623C84.3548 61.3086 84.2751 60.9736 84.1885 60.6182C84.1064 60.2581 84.029 59.9255 83.9561 59.6201C83.8877 59.3148 83.8376 59.0915 83.8057 58.9502H83.7441C83.7122 59.0915 83.6621 59.3148 83.5938 59.6201C83.5254 59.9255 83.4479 60.2581 83.3613 60.6182C83.2793 60.9782 83.2018 61.3177 83.1289 61.6367C83.056 61.9512 83.0013 62.1904 82.9648 62.3545L82.3496 65H80.1074L77.9336 57.3574H80.0117L80.8936 60.7412C80.9528 60.9782 81.0098 61.2607 81.0645 61.5889C81.1191 61.9124 81.167 62.2269 81.208 62.5322C81.2536 62.833 81.2878 63.0723 81.3105 63.25H81.3652C81.3743 63.1178 81.3926 62.9424 81.4199 62.7236C81.4518 62.5049 81.486 62.2793 81.5225 62.0469C81.5635 61.8099 81.5999 61.598 81.6318 61.4111C81.6683 61.2197 81.6956 61.0898 81.7139 61.0215L82.6572 57.3574H84.9541L85.8496 61.0215C85.8815 61.1536 85.9225 61.3633 85.9727 61.6504C86.0273 61.9375 86.0752 62.2337 86.1162 62.5391C86.1572 62.8398 86.18 63.0768 86.1846 63.25H86.2393C86.2575 63.0951 86.2894 62.8649 86.335 62.5596C86.3805 62.2542 86.4329 61.9352 86.4922 61.6025C86.556 61.2653 86.6198 60.9782 86.6836 60.7412L87.5996 57.3574H89.6436L87.4424 65H85.1729Z" fill="#393939"/>
<g filter="url(#filter0_d_9564_12283)">
<circle cx="17" cy="41" r="10" fill="white"/>
<circle cx="16.9999" cy="40.9999" r="6.66667" fill="#4FDB76"/>
<path d="M30.2583 49.4648L37.486 48.2649L33.5745 55.9979L30.2583 49.4648Z" fill="#393939"/>
</g>
<defs>
<filter id="filter0_d_9564_12283" x="3" y="31" width="38.486" height="32.9978" filterUnits="userSpaceOnUse" color-interpolation-filters="sRGB">
<feFlood flood-opacity="0" result="BackgroundImageFix"/>
<feColorMatrix in="SourceAlpha" type="matrix" values="0 0 0 0 0 0 0 0 0 0 0 0 0 0 0 0 0 0 127 0" result="hardAlpha"/>
<feOffset dy="4"/>
<feGaussianBlur stdDeviation="2"/>
<feColorMatrix type="matrix" values="0 0 0 0 0 0 0 0 0 0 0 0 0 0 0 0 0 0 0.25 0"/>
<feBlend mode="normal" in2="BackgroundImageFix" result="effect1_dropShadow_9564_12283"/>
<feBlend mode="normal" in="SourceGraphic" in2="effect1_dropShadow_9564_12283" result="shape"/>
</filter>
</defs>
</svg>
