<svg width="150" height="150" viewBox="0 0 150 150" fill="none" xmlns="http://www.w3.org/2000/svg">
<path d="M150 75C150 65.1509 148.06 55.3982 144.291 46.2987C140.522 37.1993 134.997 28.9314 128.033 21.967C121.069 15.0026 112.801 9.47813 103.701 5.70903C94.6018 1.93993 84.8491 -1.60463e-06 75 0C65.1508 1.60463e-06 55.3981 1.93994 46.2987 5.70904C37.1993 9.47815 28.9314 15.0026 21.967 21.967C15.0026 28.9314 9.47813 37.1993 5.70903 46.2988C1.93993 55.3982 -3.20925e-06 65.1509 0 75L75 75H150Z" fill="#4FDB76"/>
<path d="M150 75C150 61.4866 146.349 48.2242 139.433 36.6148C132.517 25.0054 122.592 15.4802 110.709 9.0463C98.8252 2.61235 85.4242 -0.491386 71.9221 0.0631819C58.4201 0.61775 45.3187 4.81001 34.0029 12.1968L75 75H150Z" fill="#FDFF8A"/>
<path d="M150 75C150 62.3347 146.793 49.8757 140.677 38.7848C134.561 27.6939 125.737 18.3324 115.026 11.5733L75 75H150Z" fill="#FF4444"/>
<path d="M135 75C135 59.087 128.679 43.8258 117.426 32.5736C106.174 21.3214 90.913 15 75 15C59.087 15 43.8258 21.3214 32.5736 32.5736C21.3214 43.8258 15 59.087 15 75L75 75H135Z" fill="white"/>
<path d="M68.3896 55H66.2773V50.6865H62.3193V55H60.2002V45.0059H62.3193V48.9229H66.2773V45.0059H68.3896V55ZM72.8398 47.3574V55H70.7549V47.3574H72.8398ZM71.8008 44.3633C72.1107 44.3633 72.3773 44.4362 72.6006 44.582C72.8239 44.7233 72.9355 44.9899 72.9355 45.3818C72.9355 45.7692 72.8239 46.0381 72.6006 46.1885C72.3773 46.3343 72.1107 46.4072 71.8008 46.4072C71.4863 46.4072 71.2174 46.3343 70.9941 46.1885C70.7754 46.0381 70.666 45.7692 70.666 45.3818C70.666 44.9899 70.7754 44.7233 70.9941 44.582C71.2174 44.4362 71.4863 44.3633 71.8008 44.3633ZM77.2695 58.3633C76.2031 58.3633 75.3874 58.1764 74.8223 57.8027C74.2617 57.4336 73.9814 56.9141 73.9814 56.2441C73.9814 55.7839 74.125 55.3988 74.4121 55.0889C74.6992 54.779 75.1208 54.5579 75.6768 54.4258C75.4626 54.3346 75.2757 54.1865 75.1162 53.9814C74.9567 53.7718 74.877 53.5508 74.877 53.3184C74.877 53.0267 74.9613 52.7852 75.1299 52.5938C75.2985 52.3978 75.5423 52.2064 75.8613 52.0195C75.4603 51.8464 75.1413 51.5684 74.9043 51.1855C74.6719 50.8027 74.5557 50.3516 74.5557 49.832C74.5557 49.276 74.6764 48.8044 74.918 48.417C75.1641 48.0251 75.5195 47.7266 75.9844 47.5215C76.4538 47.3164 77.0234 47.2139 77.6934 47.2139C77.8346 47.2139 77.9987 47.223 78.1855 47.2412C78.3724 47.2594 78.5433 47.2799 78.6982 47.3027C78.8577 47.3255 78.9648 47.3438 79.0195 47.3574H81.6855V48.417L80.4893 48.7246C80.5986 48.8932 80.6807 49.0732 80.7354 49.2646C80.79 49.4561 80.8174 49.6589 80.8174 49.873C80.8174 50.6934 80.5303 51.3337 79.9561 51.7939C79.3864 52.2497 78.5934 52.4775 77.5771 52.4775C77.3356 52.4639 77.1077 52.4456 76.8936 52.4229C76.7887 52.5049 76.709 52.5915 76.6543 52.6826C76.5996 52.7738 76.5723 52.8695 76.5723 52.9697C76.5723 53.07 76.6133 53.1543 76.6953 53.2227C76.7819 53.2865 76.9095 53.3366 77.0781 53.373C77.2513 53.4049 77.4655 53.4209 77.7207 53.4209H79.0195C79.8581 53.4209 80.4961 53.6009 80.9336 53.9609C81.3757 54.321 81.5967 54.8496 81.5967 55.5469C81.5967 56.4401 81.223 57.1328 80.4756 57.625C79.7327 58.1172 78.6641 58.3633 77.2695 58.3633ZM77.3584 57.0029C77.8551 57.0029 78.2812 56.9551 78.6367 56.8594C78.9967 56.7682 79.2725 56.6361 79.4639 56.4629C79.6553 56.2943 79.751 56.0915 79.751 55.8545C79.751 55.6631 79.694 55.5104 79.5801 55.3965C79.4707 55.2871 79.3021 55.2096 79.0742 55.1641C78.8509 55.1185 78.5638 55.0957 78.2129 55.0957H77.1328C76.8776 55.0957 76.6475 55.1367 76.4424 55.2188C76.2419 55.3008 76.0824 55.4147 75.9639 55.5605C75.8454 55.7109 75.7861 55.8841 75.7861 56.0801C75.7861 56.3672 75.9229 56.5928 76.1963 56.7568C76.4743 56.9209 76.8617 57.0029 77.3584 57.0029ZM77.6934 51.2061C78.0853 51.2061 78.3724 51.0853 78.5547 50.8438C78.737 50.6022 78.8281 50.2741 78.8281 49.8594C78.8281 49.3991 78.7324 49.055 78.541 48.8271C78.3542 48.5947 78.0716 48.4785 77.6934 48.4785C77.3105 48.4785 77.0234 48.5947 76.832 48.8271C76.6406 49.055 76.5449 49.3991 76.5449 49.8594C76.5449 50.2741 76.6383 50.6022 76.8252 50.8438C77.0166 51.0853 77.306 51.2061 77.6934 51.2061ZM85.0352 44.3633V46.5303C85.0352 46.9085 85.0215 47.2686 84.9941 47.6104C84.9714 47.9521 84.9531 48.1937 84.9395 48.335H85.0488C85.2129 48.0706 85.4066 47.8564 85.6299 47.6924C85.8577 47.5283 86.1084 47.4076 86.3818 47.3301C86.6553 47.2526 86.9492 47.2139 87.2637 47.2139C87.8151 47.2139 88.2959 47.3118 88.7061 47.5078C89.1162 47.6992 89.4352 48.0023 89.6631 48.417C89.891 48.8271 90.0049 49.3604 90.0049 50.0166V55H87.9199V50.5361C87.9199 49.9893 87.8197 49.5768 87.6191 49.2988C87.4186 49.0208 87.1087 48.8818 86.6895 48.8818C86.2702 48.8818 85.9398 48.9798 85.6982 49.1758C85.4567 49.3672 85.2858 49.652 85.1855 50.0303C85.0853 50.404 85.0352 50.862 85.0352 51.4043V55H82.9502V44.3633H85.0352ZM54.8682 66.626C54.4626 66.626 54.1025 66.7057 53.7881 66.8652C53.4782 67.0202 53.2161 67.2458 53.002 67.542C52.7923 67.8382 52.6328 68.196 52.5234 68.6152C52.4141 69.0345 52.3594 69.5062 52.3594 70.0303C52.3594 70.7367 52.446 71.3405 52.6191 71.8418C52.7969 72.3385 53.0703 72.7191 53.4395 72.9834C53.8086 73.2432 54.2848 73.373 54.8682 73.373C55.2738 73.373 55.6794 73.3275 56.085 73.2363C56.4951 73.1452 56.9395 73.0153 57.418 72.8467V74.624C56.9759 74.8063 56.5407 74.9362 56.1123 75.0137C55.6839 75.0957 55.2031 75.1367 54.6699 75.1367C53.64 75.1367 52.7923 74.9248 52.127 74.501C51.4661 74.0726 50.9762 73.4756 50.6572 72.71C50.3382 71.9398 50.1787 71.042 50.1787 70.0166C50.1787 69.2601 50.2812 68.5674 50.4863 67.9385C50.6914 67.3096 50.9922 66.765 51.3887 66.3047C51.7852 65.8444 52.2751 65.4889 52.8584 65.2383C53.4417 64.9876 54.1117 64.8623 54.8682 64.8623C55.3649 64.8623 55.8617 64.9261 56.3584 65.0537C56.8597 65.1768 57.3382 65.3477 57.7939 65.5664L57.1104 67.2891C56.7367 67.1113 56.3607 66.9564 55.9824 66.8242C55.6042 66.6921 55.2327 66.626 54.8682 66.626ZM61.4717 64.3633V66.5303C61.4717 66.9085 61.458 67.2686 61.4307 67.6104C61.4079 67.9521 61.3896 68.1937 61.376 68.335H61.4854C61.6494 68.0706 61.8431 67.8564 62.0664 67.6924C62.2943 67.5283 62.5449 67.4076 62.8184 67.3301C63.0918 67.2526 63.3857 67.2139 63.7002 67.2139C64.2516 67.2139 64.7324 67.3118 65.1426 67.5078C65.5527 67.6992 65.8717 68.0023 66.0996 68.417C66.3275 68.8271 66.4414 69.3604 66.4414 70.0166V75H64.3564V70.5361C64.3564 69.9893 64.2562 69.5768 64.0557 69.2988C63.8551 69.0208 63.5452 68.8818 63.126 68.8818C62.7067 68.8818 62.3763 68.9798 62.1348 69.1758C61.8932 69.3672 61.7223 69.652 61.6221 70.0303C61.5218 70.404 61.4717 70.862 61.4717 71.4043V75H59.3867V64.3633H61.4717ZM71.7188 67.2002C72.7441 67.2002 73.5303 67.4235 74.0771 67.8701C74.624 68.3167 74.8975 68.9958 74.8975 69.9072V75H73.4414L73.0381 73.9609H72.9834C72.7646 74.2344 72.5413 74.4577 72.3135 74.6309C72.0856 74.804 71.8236 74.9316 71.5273 75.0137C71.2311 75.0957 70.8711 75.1367 70.4473 75.1367C69.9961 75.1367 69.5905 75.0501 69.2305 74.877C68.875 74.7038 68.5947 74.4395 68.3896 74.084C68.1846 73.724 68.082 73.2682 68.082 72.7168C68.082 71.9056 68.3669 71.3086 68.9365 70.9258C69.5062 70.5384 70.3607 70.3242 71.5 70.2832L72.8262 70.2422V69.9072C72.8262 69.5062 72.7214 69.2122 72.5117 69.0254C72.3021 68.8385 72.0104 68.7451 71.6367 68.7451C71.2676 68.7451 70.9053 68.7975 70.5498 68.9023C70.1943 69.0072 69.8389 69.1393 69.4834 69.2988L68.793 67.8906C69.1986 67.6764 69.652 67.5078 70.1533 67.3848C70.6592 67.2617 71.181 67.2002 71.7188 67.2002ZM72.8262 71.459L72.0195 71.4863C71.3451 71.5046 70.8757 71.6253 70.6113 71.8486C70.3516 72.0719 70.2217 72.3659 70.2217 72.7305C70.2217 73.0495 70.3151 73.2773 70.502 73.4141C70.6888 73.5462 70.9326 73.6123 71.2334 73.6123C71.68 73.6123 72.056 73.4801 72.3613 73.2158C72.6712 72.9515 72.8262 72.5755 72.8262 72.0879V71.459ZM81.3916 67.2139C82.2074 67.2139 82.8636 67.4372 83.3604 67.8838C83.8571 68.3258 84.1055 69.0368 84.1055 70.0166V75H82.0205V70.5361C82.0205 69.9893 81.9202 69.5768 81.7197 69.2988C81.5238 69.0208 81.2139 68.8818 80.79 68.8818C80.152 68.8818 79.7168 69.0983 79.4844 69.5312C79.252 69.9642 79.1357 70.5885 79.1357 71.4043V75H77.0508V67.3574H78.6436L78.9238 68.335H79.04C79.2041 68.0706 79.4069 67.8564 79.6484 67.6924C79.8945 67.5283 80.1657 67.4076 80.4619 67.3301C80.7627 67.2526 81.0726 67.2139 81.3916 67.2139ZM89.3555 75.1367C88.599 75.1367 87.9541 75 87.4209 74.7266C86.8877 74.4486 86.4821 74.0202 86.2041 73.4414C85.9261 72.8626 85.7871 72.1221 85.7871 71.2197C85.7871 70.2855 85.9443 69.5244 86.2588 68.9365C86.5778 68.3441 87.0176 67.9089 87.5781 67.6309C88.1432 67.3529 88.7972 67.2139 89.54 67.2139C90.0687 67.2139 90.5244 67.2663 90.9072 67.3711C91.2946 67.4714 91.6318 67.5921 91.9189 67.7334L91.3037 69.3467C90.9756 69.2145 90.6702 69.1074 90.3877 69.0254C90.1051 68.9388 89.8226 68.8955 89.54 68.8955C89.1755 68.8955 88.8724 68.9821 88.6309 69.1553C88.3893 69.3239 88.2093 69.5791 88.0908 69.9209C87.9723 70.2627 87.9131 70.6911 87.9131 71.2061C87.9131 71.7119 87.9769 72.1312 88.1045 72.4639C88.2321 72.7965 88.4167 73.0449 88.6582 73.209C88.8997 73.3685 89.1937 73.4482 89.54 73.4482C89.973 73.4482 90.3581 73.3913 90.6953 73.2773C91.0326 73.1589 91.3607 72.9948 91.6797 72.7852V74.5693C91.3607 74.7699 91.0257 74.9134 90.6748 75C90.3285 75.0911 89.8887 75.1367 89.3555 75.1367ZM96.6084 67.2139C97.3148 67.2139 97.9232 67.3506 98.4336 67.624C98.944 67.8929 99.3382 68.2848 99.6162 68.7998C99.8942 69.3148 100.033 69.9437 100.033 70.6865V71.6982H95.1045C95.1273 72.2861 95.3027 72.7487 95.6309 73.0859C95.9635 73.4186 96.4238 73.585 97.0117 73.585C97.4993 73.585 97.946 73.5348 98.3516 73.4346C98.7572 73.3343 99.1742 73.1839 99.6025 72.9834V74.5967C99.2243 74.7835 98.8278 74.9202 98.4131 75.0068C98.0029 75.0934 97.5039 75.1367 96.916 75.1367C96.1504 75.1367 95.4714 74.9954 94.8789 74.7129C94.291 74.4303 93.8285 73.9997 93.4912 73.4209C93.1585 72.8421 92.9922 72.113 92.9922 71.2334C92.9922 70.3402 93.1426 69.5973 93.4434 69.0049C93.7487 68.4079 94.1725 67.9613 94.7148 67.665C95.2572 67.3643 95.8883 67.2139 96.6084 67.2139ZM96.6221 68.6973C96.2165 68.6973 95.8792 68.8271 95.6104 69.0869C95.346 69.3467 95.1934 69.7546 95.1523 70.3105H98.0781C98.0736 70.0007 98.0166 69.7249 97.9072 69.4834C97.8024 69.2419 97.6429 69.0505 97.4287 68.9092C97.2191 68.7679 96.9502 68.6973 96.6221 68.6973Z" fill="#393939"/>
<g filter="url(#filter0_d_8986_8720)">
<circle cx="135" cy="45" r="10" fill="white"/>
<circle cx="135" cy="44.9999" r="6.66667" fill="#FF4444"/>
</g>
<path d="M120.896 52.1977L117.729 58.8046L113.643 51.1625L120.896 52.1977Z" fill="#393939"/>
<defs>
<filter id="filter0_d_8986_8720" x="121" y="35" width="28" height="28" filterUnits="userSpaceOnUse" color-interpolation-filters="sRGB">
<feFlood flood-opacity="0" result="BackgroundImageFix"/>
<feColorMatrix in="SourceAlpha" type="matrix" values="0 0 0 0 0 0 0 0 0 0 0 0 0 0 0 0 0 0 127 0" result="hardAlpha"/>
<feOffset dy="4"/>
<feGaussianBlur stdDeviation="2"/>
<feColorMatrix type="matrix" values="0 0 0 0 0 0 0 0 0 0 0 0 0 0 0 0 0 0 0.25 0"/>
<feBlend mode="normal" in2="BackgroundImageFix" result="effect1_dropShadow_8986_8720"/>
<feBlend mode="normal" in="SourceGraphic" in2="effect1_dropShadow_8986_8720" result="shape"/>
</filter>
</defs>
</svg>
