<svg width="150" height="150" viewBox="0 0 150 150" fill="none" xmlns="http://www.w3.org/2000/svg">
<path d="M150 75C150 65.1509 148.06 55.3982 144.291 46.2987C140.522 37.1993 134.997 28.9314 128.033 21.967C121.069 15.0026 112.801 9.47813 103.701 5.70903C94.6018 1.93993 84.8491 -1.60463e-06 75 0C65.1508 1.60463e-06 55.3981 1.93994 46.2987 5.70904C37.1993 9.47815 28.9314 15.0026 21.967 21.967C15.0026 28.9314 9.47813 37.1993 5.70903 46.2988C1.93993 55.3982 -3.20925e-06 65.1509 0 75L75 75H150Z" fill="#4FDB76"/>
<path d="M150 75C150 61.4866 146.349 48.2242 139.433 36.6148C132.517 25.0054 122.592 15.4802 110.709 9.0463C98.8252 2.61235 85.4242 -0.491386 71.9221 0.0631819C58.4201 0.61775 45.3187 4.81001 34.0029 12.1968L75 75H150Z" fill="#FDFF8A"/>
<path d="M150 75C150 62.3347 146.793 49.8757 140.677 38.7848C134.561 27.6939 125.737 18.3324 115.026 11.5733L75 75H150Z" fill="#FF4444"/>
<path d="M135 75C135 59.087 128.679 43.8258 117.426 32.5736C106.174 21.3214 90.913 15 75 15C59.087 15 43.8258 21.3214 32.5736 32.5736C21.3214 43.8258 15 59.087 15 75L75 75H135Z" fill="white"/>
<path d="M37.7582 69.172C36.7502 69.172 35.8915 69.1207 35.1822 69.018C34.4822 68.9247 33.9175 68.7753 33.4882 68.57C33.0589 68.3647 32.7415 68.0987 32.5362 67.772C32.3402 67.4453 32.2422 67.0487 32.2422 66.582C32.2422 66.078 32.3915 65.616 32.6902 65.196C32.9889 64.776 33.4555 64.412 34.0902 64.104C34.7342 63.7867 35.5602 63.544 36.5682 63.376C37.5855 63.1987 38.8082 63.11 40.2362 63.11C40.5909 63.11 40.8429 63.2033 40.9922 63.39C41.1509 63.5673 41.2302 63.7913 41.2302 64.062C41.2302 64.3513 41.1322 64.594 40.9362 64.79C40.7402 64.9767 40.4602 65.07 40.0962 65.07C39.1349 65.07 38.2855 65.1073 37.5482 65.182C36.8202 65.266 36.2089 65.3687 35.7142 65.49C35.2195 65.6207 34.8462 65.7607 34.5942 65.91C34.3515 66.0687 34.2302 66.218 34.2302 66.358C34.2302 66.47 34.2675 66.5773 34.3422 66.68C34.4169 66.7827 34.5709 66.8713 34.8042 66.946C35.0469 67.03 35.4062 67.0953 35.8822 67.142C36.3582 67.1887 36.9929 67.212 37.7862 67.212C38.0289 67.212 38.3135 67.2027 38.6402 67.184C38.9669 67.1653 39.3122 67.1373 39.6762 67.1C40.0402 67.0627 40.3949 67.0113 40.7402 66.946L40.5442 68.85C40.2922 68.9153 40.0122 68.9667 39.7042 69.004C39.3962 69.0507 39.0975 69.0833 38.8082 69.102C38.5282 69.13 38.2902 69.1487 38.0942 69.158C37.8982 69.1673 37.7862 69.172 37.7582 69.172ZM42.1898 65.28L42.6798 65.868C42.3905 66.0267 42.2085 66.19 42.1338 66.358C42.0592 66.526 42.0685 66.75 42.1618 67.03L41.1818 66.68C41.3125 66.5867 41.4572 66.5167 41.6158 66.47C41.7838 66.4327 41.9565 66.414 42.1338 66.414C42.3765 66.414 42.5632 66.4607 42.6938 66.554C42.8245 66.6473 42.8898 66.778 42.8898 66.946C42.8898 67.0767 42.8338 67.2307 42.7218 67.408C42.6098 67.5853 42.3765 67.674 42.0218 67.674C41.7792 67.674 41.5598 67.604 41.3638 67.464C41.1772 67.324 41.0838 67.1 41.0838 66.792C41.0838 66.6053 41.1212 66.414 41.1958 66.218C41.2705 66.0313 41.3872 65.854 41.5458 65.686C41.7138 65.518 41.9285 65.3827 42.1898 65.28ZM40.0898 65.07L40.2298 63.11C40.6405 63.11 40.9625 63.082 41.1958 63.026C41.4385 62.97 41.6112 62.8673 41.7138 62.718C41.8165 62.5593 41.8678 62.3353 41.8678 62.046C41.8678 61.7847 41.8305 61.472 41.7558 61.108C41.6905 60.744 41.6018 60.366 41.4898 59.974C41.3778 59.582 41.2658 59.2227 41.1538 58.896L43.0858 58.364C43.1978 58.6813 43.3098 59.05 43.4218 59.47C43.5338 59.89 43.6272 60.324 43.7018 60.772C43.7858 61.2107 43.8278 61.6353 43.8278 62.046C43.8278 62.5593 43.7625 62.9933 43.6318 63.348C43.5012 63.6933 43.3192 63.9827 43.0858 64.216C42.8618 64.44 42.5912 64.6173 42.2738 64.748C41.9658 64.8693 41.6252 64.9533 41.2518 65C40.8785 65.0467 40.4912 65.07 40.0898 65.07ZM48.5339 64.608C48.5339 64.2813 48.5759 63.8753 48.6599 63.39C48.7533 62.8953 48.9539 62.3073 49.2619 61.626L50.9839 62.228C50.8253 62.6667 50.7039 63.0447 50.6199 63.362C50.5359 63.67 50.4939 63.9733 50.4939 64.272C50.4939 64.692 50.5873 65.0513 50.7739 65.35C50.9699 65.6487 51.2546 65.8773 51.6279 66.036C52.0106 66.1947 52.4773 66.274 53.0279 66.274C53.5879 66.274 54.0546 66.2133 54.4279 66.092C54.8013 65.9707 55.0953 65.798 55.3099 65.574C55.5246 65.3593 55.6786 65.1073 55.7719 64.818C55.8653 64.5287 55.9119 64.216 55.9119 63.88C55.9119 63.6187 55.8793 63.3247 55.8139 62.998C55.7579 62.6713 55.6739 62.3167 55.5619 61.934C55.4499 61.542 55.3239 61.1313 55.1839 60.702L57.1439 60.198C57.2373 60.5527 57.3119 60.856 57.3679 61.108C57.4333 61.36 57.4893 61.57 57.5359 61.738C57.5826 61.8967 57.6199 62.0273 57.6479 62.13C57.7413 62.41 57.8673 62.62 58.0259 62.76C58.1846 62.9 58.3899 62.9933 58.6419 63.04C58.9033 63.0867 59.2159 63.11 59.5799 63.11C59.9346 63.11 60.1866 63.2033 60.3359 63.39C60.4853 63.5673 60.5599 63.7913 60.5599 64.062C60.5599 64.3513 60.4619 64.594 60.2659 64.79C60.0699 64.9767 59.7946 65.07 59.4399 65.07C59.1226 65.07 58.8053 65.028 58.4879 64.944C58.1799 64.8507 57.9139 64.7013 57.6899 64.496C57.4659 64.2907 57.3213 64.0153 57.2559 63.67L57.7739 64.23C57.7553 64.8647 57.6293 65.4293 57.3959 65.924C57.1626 66.4187 56.8359 66.8387 56.4159 67.184C56.0053 67.5293 55.5059 67.7907 54.9179 67.968C54.3393 68.1453 53.6906 68.234 52.9719 68.234C52.3466 68.234 51.7633 68.164 51.2219 68.024C50.6899 67.8933 50.2186 67.6787 49.8079 67.38C49.4066 67.0907 49.0939 66.7173 48.8699 66.26C48.6459 65.8027 48.5339 65.252 48.5339 64.608ZM59.4355 65.07L59.5755 63.11C59.9115 63.11 60.2009 63.0773 60.4435 63.012C60.6862 62.9467 60.8915 62.816 61.0595 62.62C61.2275 62.4147 61.3675 62.116 61.4795 61.724C61.6009 61.332 61.7082 60.8093 61.8015 60.156L63.6355 60.464C63.6169 60.604 63.5889 60.7673 63.5515 60.954C63.5235 61.1407 63.4955 61.332 63.4675 61.528C63.4489 61.7147 63.4395 61.892 63.4395 62.06C63.4395 62.228 63.4722 62.3773 63.5375 62.508C63.6029 62.6387 63.7055 62.7507 63.8455 62.844C63.9949 62.928 64.1862 62.9933 64.4195 63.04C64.6622 63.0867 64.9562 63.11 65.3015 63.11C65.6562 63.11 65.9082 63.2033 66.0575 63.39C66.2069 63.5673 66.2815 63.7913 66.2815 64.062C66.2815 64.3513 66.1835 64.594 65.9875 64.79C65.8009 64.9767 65.5255 65.07 65.1615 65.07C64.7415 65.07 64.3589 65.0373 64.0135 64.972C63.6775 64.9067 63.3835 64.7993 63.1315 64.65C62.8889 64.4913 62.6882 64.286 62.5295 64.034C62.3802 63.7727 62.2869 63.4553 62.2495 63.082H62.9215C62.7535 63.53 62.5389 63.8893 62.2775 64.16C62.0255 64.4213 61.7409 64.6173 61.4235 64.748C61.1062 64.8787 60.7749 64.9627 60.4295 65C60.0935 65.0467 59.7622 65.07 59.4355 65.07ZM63.3415 68.318C63.0709 68.318 62.8375 68.22 62.6415 68.024C62.4549 67.8373 62.3615 67.6133 62.3615 67.352C62.3615 67.0813 62.4549 66.848 62.6415 66.652C62.8375 66.456 63.0709 66.358 63.3415 66.358C63.6029 66.358 63.8269 66.456 64.0135 66.652C64.2002 66.848 64.2935 67.0813 64.2935 67.352C64.2935 67.6133 64.2002 67.8373 64.0135 68.024C63.8269 68.22 63.6029 68.318 63.3415 68.318ZM60.9195 68.318C60.6489 68.318 60.4155 68.22 60.2195 68.024C60.0329 67.8373 59.9395 67.6133 59.9395 67.352C59.9395 67.0813 60.0329 66.848 60.2195 66.652C60.4155 66.456 60.6489 66.358 60.9195 66.358C61.1809 66.358 61.4049 66.456 61.5915 66.652C61.7782 66.848 61.8715 67.0813 61.8715 67.352C61.8715 67.6133 61.7782 67.8373 61.5915 68.024C61.4049 68.22 61.1809 68.318 60.9195 68.318ZM68.7621 68.766C68.3607 68.4487 68.0154 68.0567 67.7261 67.59C67.4367 67.1233 67.2034 66.6287 67.0261 66.106C66.8487 65.5833 66.7274 65.0793 66.6621 64.594C66.5221 64.7527 66.3307 64.874 66.0881 64.958C65.8547 65.0327 65.5467 65.07 65.1641 65.07L65.2901 63.11C65.4207 63.11 65.5607 63.096 65.7101 63.068C65.8594 63.04 66.0087 62.9887 66.1581 62.914C66.3167 62.83 66.4707 62.7087 66.6201 62.55C66.7694 62.3913 66.9047 62.186 67.0261 61.934L68.5381 62.326C68.4447 62.6993 68.3887 63.0773 68.3701 63.46C68.3514 63.8427 68.3701 64.216 68.4261 64.58C68.4914 64.9347 68.5847 65.2707 68.7061 65.588C68.8367 65.9053 68.9954 66.19 69.1821 66.442C69.2007 65.7607 69.3034 65.1727 69.4901 64.678C69.6861 64.174 70.0221 63.7867 70.4981 63.516C70.9741 63.2453 71.6414 63.11 72.5001 63.11C72.8547 63.11 73.1067 63.2033 73.2561 63.39C73.4147 63.5673 73.4941 63.7913 73.4941 64.062C73.4941 64.3513 73.3961 64.594 73.2001 64.79C73.0041 64.9767 72.7287 65.07 72.3741 65.07C71.8701 65.07 71.4874 65.1727 71.2261 65.378C70.9647 65.5927 70.7874 65.91 70.6941 66.33C70.6101 66.75 70.5681 67.282 70.5681 67.926L68.7621 68.766ZM72.3691 65.07L72.5091 63.11C72.9198 63.11 73.2418 63.082 73.4751 63.026C73.7178 62.97 73.8905 62.8673 73.9931 62.718C74.0958 62.5593 74.1471 62.3353 74.1471 62.046C74.1471 61.7847 74.1098 61.472 74.0351 61.108C73.9698 60.744 73.8811 60.366 73.7691 59.974C73.6571 59.582 73.5451 59.2227 73.4331 58.896L75.3651 58.364C75.4771 58.6813 75.5891 59.05 75.7011 59.47C75.8131 59.89 75.9065 60.324 75.9811 60.772C76.0651 61.2107 76.1071 61.6353 76.1071 62.046C76.1071 62.5593 76.0418 62.9933 75.9111 63.348C75.7805 63.6933 75.5985 63.9827 75.3651 64.216C75.1411 64.44 74.8705 64.6173 74.5531 64.748C74.2451 64.8693 73.9045 64.9533 73.5311 65C73.1578 65.0467 72.7705 65.07 72.3691 65.07ZM74.3851 57.202C74.0958 57.202 73.8485 57.104 73.6431 56.908C73.4471 56.712 73.3491 56.4693 73.3491 56.18C73.3491 55.8907 73.4471 55.6433 73.6431 55.438C73.8485 55.2327 74.0958 55.13 74.3851 55.13C74.6651 55.13 74.9031 55.2327 75.0991 55.438C75.3045 55.6433 75.4071 55.8907 75.4071 56.18C75.4071 56.4693 75.3045 56.712 75.0991 56.908C74.9031 57.104 74.6651 57.202 74.3851 57.202ZM88.6532 65.07C87.9999 65.07 87.4679 64.9953 87.0572 64.846C86.6559 64.6967 86.3386 64.496 86.1052 64.244C85.8719 63.9827 85.6806 63.684 85.5312 63.348C85.3819 63.0027 85.2372 62.6433 85.0972 62.27C84.9759 61.934 84.8452 61.7193 84.7052 61.626C84.5746 61.5233 84.4159 61.472 84.2292 61.472C83.9026 61.472 83.6179 61.5373 83.3752 61.668C83.1326 61.7987 82.9412 61.9667 82.8012 62.172C82.6706 62.3773 82.6052 62.5967 82.6052 62.83C82.6052 63.0727 82.6426 63.3293 82.7172 63.6C82.7919 63.8613 82.8759 64.132 82.9692 64.412L81.2052 64.902C81.1306 64.6873 81.0466 64.4633 80.9532 64.23C80.8692 63.9873 80.7946 63.74 80.7292 63.488C80.6732 63.236 80.6452 62.9887 80.6452 62.746C80.6452 62.2793 80.7526 61.85 80.9672 61.458C81.1912 61.0567 81.4852 60.7113 81.8492 60.422C82.2226 60.1327 82.6379 59.9087 83.0952 59.75C83.5526 59.5913 84.0146 59.512 84.4812 59.512C84.7892 59.512 85.0832 59.5493 85.3632 59.624C85.6432 59.6893 85.8906 59.8107 86.1052 59.988C86.3292 60.1653 86.4926 60.408 86.5952 60.716C86.7726 61.22 86.9266 61.6307 87.0572 61.948C87.1972 62.256 87.3419 62.494 87.4912 62.662C87.6406 62.83 87.8179 62.9467 88.0232 63.012C88.2286 63.0773 88.4852 63.11 88.7932 63.11C89.1479 63.11 89.3999 63.2033 89.5492 63.39C89.6986 63.5673 89.7732 63.7913 89.7732 64.062C89.7732 64.3513 89.6752 64.594 89.4792 64.79C89.2832 64.9767 89.0079 65.07 88.6532 65.07ZM88.6523 65.07L88.7923 63.11C89.1003 63.11 89.3523 63.0867 89.5483 63.04C89.7443 62.984 89.903 62.8673 90.0243 62.69C90.155 62.5033 90.267 62.228 90.3603 61.864C90.463 61.4907 90.575 60.9867 90.6963 60.352L92.5163 60.688C92.4883 60.828 92.4557 60.9913 92.4183 61.178C92.381 61.3647 92.3483 61.556 92.3203 61.752C92.2923 61.9387 92.2783 62.1067 92.2783 62.256C92.2783 62.5173 92.3623 62.7273 92.5303 62.886C92.6983 63.0353 93.0157 63.11 93.4823 63.11C93.7157 63.11 93.9163 63.0867 94.0843 63.04C94.2617 62.984 94.411 62.8673 94.5323 62.69C94.663 62.5033 94.775 62.2187 94.8683 61.836C94.971 61.444 95.069 60.9167 95.1623 60.254L97.0103 60.548C96.973 60.7627 96.9357 60.9913 96.8983 61.234C96.861 61.4767 96.8283 61.7007 96.8003 61.906C96.7723 62.1113 96.7583 62.2793 96.7583 62.41C96.7583 62.5313 96.791 62.648 96.8563 62.76C96.931 62.8627 97.0617 62.9467 97.2483 63.012C97.4443 63.0773 97.7197 63.11 98.0743 63.11C98.3263 63.11 98.541 63.0773 98.7183 63.012C98.905 62.9467 99.045 62.8393 99.1383 62.69C99.241 62.5407 99.2923 62.3447 99.2923 62.102C99.2923 61.7567 99.213 61.304 99.0543 60.744C98.8957 60.184 98.709 59.596 98.4943 58.98L100.468 58.392C100.618 58.7933 100.748 59.2227 100.86 59.68C100.982 60.128 101.075 60.5667 101.14 60.996C101.215 61.416 101.252 61.7847 101.252 62.102C101.252 62.578 101.178 63.0027 101.028 63.376C100.879 63.74 100.669 64.048 100.398 64.3C100.128 64.552 99.8057 64.7433 99.4323 64.874C99.059 65.0047 98.6483 65.07 98.2003 65.07C97.659 65.07 97.2157 65.0187 96.8703 64.916C96.525 64.804 96.259 64.622 96.0723 64.37C95.895 64.1087 95.7783 63.754 95.7223 63.306H96.1983C96.0023 63.8567 95.783 64.258 95.5403 64.51C95.2977 64.7527 95.0083 64.9067 94.6723 64.972C94.3457 65.0373 93.935 65.07 93.4403 65.07C93.1323 65.07 92.815 65.0373 92.4883 64.972C92.171 64.8973 91.8863 64.7293 91.6343 64.468C91.3823 64.2067 91.1957 63.8007 91.0743 63.25L91.8303 63.222C91.6343 63.7727 91.3777 64.1787 91.0603 64.44C90.7523 64.7013 90.3977 64.874 89.9963 64.958C89.595 65.0327 89.147 65.07 88.6523 65.07ZM95.9743 56.404C95.741 56.404 95.5357 56.3153 95.3583 56.138C95.1903 55.9607 95.1063 55.7507 95.1063 55.508C95.1063 55.2653 95.1903 55.06 95.3583 54.892C95.5357 54.724 95.741 54.64 95.9743 54.64C96.217 54.64 96.4223 54.724 96.5903 54.892C96.7583 55.06 96.8423 55.2653 96.8423 55.508C96.8423 55.7507 96.7583 55.9607 96.5903 56.138C96.4223 56.3153 96.217 56.404 95.9743 56.404ZM94.8543 58.252C94.621 58.252 94.4157 58.1633 94.2383 57.986C94.0703 57.8087 93.9863 57.5987 93.9863 57.356C93.9863 57.1133 94.0703 56.908 94.2383 56.74C94.4157 56.572 94.621 56.488 94.8543 56.488C95.097 56.488 95.3023 56.572 95.4703 56.74C95.6383 56.908 95.7223 57.1133 95.7223 57.356C95.7223 57.5987 95.6383 57.8087 95.4703 57.986C95.3023 58.1633 95.097 58.252 94.8543 58.252ZM97.0243 58.252C96.791 58.252 96.5857 58.1633 96.4083 57.986C96.2403 57.8087 96.1563 57.5987 96.1563 57.356C96.1563 57.1133 96.2403 56.908 96.4083 56.74C96.5857 56.572 96.791 56.488 97.0243 56.488C97.267 56.488 97.4723 56.572 97.6403 56.74C97.8083 56.908 97.8923 57.1133 97.8923 57.356C97.8923 57.5987 97.8083 57.8087 97.6403 57.986C97.4723 58.1633 97.267 58.252 97.0243 58.252ZM105.007 63.11C105.427 63.11 105.749 63.0727 105.973 62.998C106.197 62.9233 106.351 62.8253 106.435 62.704C106.519 62.5827 106.561 62.452 106.561 62.312C106.561 62.088 106.496 61.8267 106.365 61.528C106.244 61.2293 106.09 60.9167 105.903 60.59C105.716 60.2633 105.52 59.9507 105.315 59.652C105.119 59.3533 104.942 59.092 104.783 58.868L106.449 57.762C106.85 58.3033 107.196 58.84 107.485 59.372C107.774 59.8947 108.008 60.38 108.185 60.828C108.372 61.276 108.502 61.6587 108.577 61.976C108.652 62.2747 108.764 62.508 108.913 62.676C109.072 62.8347 109.254 62.9467 109.459 63.012C109.664 63.0773 109.87 63.11 110.075 63.11C110.43 63.11 110.682 63.2033 110.831 63.39C110.99 63.5673 111.069 63.7913 111.069 64.062C111.069 64.3513 110.971 64.594 110.775 64.79C110.588 64.9767 110.308 65.07 109.935 65.07C109.524 65.07 109.165 65.014 108.857 64.902C108.549 64.79 108.288 64.6127 108.073 64.37C107.858 64.1273 107.676 63.8193 107.527 63.446L108.381 63.628C108.306 63.8893 108.134 64.132 107.863 64.356C107.602 64.5707 107.252 64.748 106.813 64.888C106.384 65.0187 105.875 65.084 105.287 65.084C105.007 65.084 104.694 65.0607 104.349 65.014C104.013 64.9673 103.677 64.8973 103.341 64.804C103.014 64.7107 102.716 64.5893 102.445 64.44L103.131 62.662C103.476 62.8113 103.808 62.9233 104.125 62.998C104.452 63.0727 104.746 63.11 105.007 63.11ZM109.953 65.07L110.093 63.11C110.597 63.11 111.096 63.082 111.591 63.026C112.086 62.97 112.566 62.886 113.033 62.774C113.5 62.662 113.943 62.5173 114.363 62.34C114.792 62.1627 115.194 61.948 115.567 61.696C115.287 61.528 114.984 61.3833 114.657 61.262C114.33 61.1407 113.98 61.052 113.607 60.996C113.243 60.9307 112.856 60.898 112.445 60.898C112.296 60.898 112.137 60.9027 111.969 60.912C111.81 60.9213 111.647 60.94 111.479 60.968C111.311 60.9867 111.143 61.0147 110.975 61.052L110.695 59.134C110.966 59.0593 111.25 59.008 111.549 58.98C111.857 58.9427 112.128 58.924 112.361 58.924C112.865 58.924 113.327 58.98 113.747 59.092C114.176 59.204 114.568 59.344 114.923 59.512C115.287 59.68 115.623 59.848 115.931 60.016C116.248 60.184 116.547 60.324 116.827 60.436C117.116 60.548 117.396 60.604 117.667 60.604H118.185L118.409 62.466C118.008 62.4847 117.63 62.564 117.275 62.704C116.93 62.8347 116.584 63.0027 116.239 63.208C115.903 63.404 115.539 63.6093 115.147 63.824C114.764 64.0387 114.33 64.2393 113.845 64.426C113.36 64.6127 112.8 64.7667 112.165 64.888C111.53 65.0093 110.793 65.07 109.953 65.07ZM112.375 57.622C112.086 57.622 111.838 57.524 111.633 57.328C111.437 57.132 111.339 56.8893 111.339 56.6C111.339 56.3107 111.437 56.0633 111.633 55.858C111.838 55.6527 112.086 55.55 112.375 55.55C112.655 55.55 112.893 55.6527 113.089 55.858C113.294 56.0633 113.397 56.3107 113.397 56.6C113.397 56.8893 113.294 57.132 113.089 57.328C112.893 57.524 112.655 57.622 112.375 57.622Z" fill="#393939"/>
<g filter="url(#filter0_d_9093_8370)">
<circle cx="17" cy="41" r="10" fill="white"/>
<circle cx="16.9999" cy="40.9999" r="6.66667" fill="#4FDB76"/>
<path d="M30.2583 49.4648L37.486 48.2649L33.5745 55.9979L30.2583 49.4648Z" fill="#393939"/>
</g>
<defs>
<filter id="filter0_d_9093_8370" x="3" y="31" width="38.486" height="32.9978" filterUnits="userSpaceOnUse" color-interpolation-filters="sRGB">
<feFlood flood-opacity="0" result="BackgroundImageFix"/>
<feColorMatrix in="SourceAlpha" type="matrix" values="0 0 0 0 0 0 0 0 0 0 0 0 0 0 0 0 0 0 127 0" result="hardAlpha"/>
<feOffset dy="4"/>
<feGaussianBlur stdDeviation="2"/>
<feColorMatrix type="matrix" values="0 0 0 0 0 0 0 0 0 0 0 0 0 0 0 0 0 0 0.25 0"/>
<feBlend mode="normal" in2="BackgroundImageFix" result="effect1_dropShadow_9093_8370"/>
<feBlend mode="normal" in="SourceGraphic" in2="effect1_dropShadow_9093_8370" result="shape"/>
</filter>
</defs>
</svg>
