<svg width="75" height="45" viewBox="0 0 75 45" fill="none" xmlns="http://www.w3.org/2000/svg">
<path d="M25.5498 35.9072C25.5498 37.5524 25.0804 38.8125 24.1416 39.6875C23.2074 40.5625 21.8561 41 20.0879 41H17.2578V31.0059H20.3955C22.027 31.0059 23.2939 31.4365 24.1963 32.2979C25.0986 33.1592 25.5498 34.3623 25.5498 35.9072ZM23.3486 35.9619C23.3486 33.8154 22.4007 32.7422 20.5049 32.7422H19.377V39.25H20.2861C22.3278 39.25 23.3486 38.154 23.3486 35.9619ZM30.6221 34.6973C30.18 34.6973 29.8337 34.8385 29.583 35.1211C29.3324 35.3991 29.1888 35.7956 29.1523 36.3105H32.0781C32.069 35.7956 31.9346 35.3991 31.6748 35.1211C31.415 34.8385 31.0641 34.6973 30.6221 34.6973ZM30.916 41.1367C29.6855 41.1367 28.724 40.7972 28.0312 40.1182C27.3385 39.4391 26.9922 38.4775 26.9922 37.2334C26.9922 35.9528 27.3112 34.9639 27.9492 34.2666C28.5918 33.5648 29.4782 33.2139 30.6084 33.2139C31.6885 33.2139 32.5293 33.5215 33.1309 34.1367C33.7324 34.752 34.0332 35.6019 34.0332 36.6865V37.6982H29.1045C29.1273 38.2907 29.3027 38.7533 29.6309 39.0859C29.959 39.4186 30.4193 39.585 31.0117 39.585C31.472 39.585 31.9072 39.5371 32.3174 39.4414C32.7275 39.3457 33.1559 39.193 33.6025 38.9834V40.5967C33.238 40.779 32.8483 40.9134 32.4336 41C32.0189 41.0911 31.513 41.1367 30.916 41.1367ZM42.5713 41H40.4863V36.5361C40.4863 35.9847 40.3929 35.5723 40.2061 35.2988C40.0238 35.0208 39.7344 34.8818 39.3379 34.8818C38.8047 34.8818 38.4173 35.0778 38.1758 35.4697C37.9342 35.8617 37.8135 36.5065 37.8135 37.4043V41H35.7285V33.3574H37.3213L37.6016 34.335H37.7178C37.9229 33.984 38.2191 33.7106 38.6064 33.5146C38.9938 33.3141 39.4382 33.2139 39.9395 33.2139C41.0833 33.2139 41.8581 33.5876 42.2637 34.335H42.4482C42.6533 33.9795 42.9541 33.7038 43.3506 33.5078C43.7516 33.3118 44.2028 33.2139 44.7041 33.2139C45.57 33.2139 46.224 33.4372 46.666 33.8838C47.1126 34.3258 47.3359 35.0368 47.3359 36.0166V41H45.2441V36.5361C45.2441 35.9847 45.1507 35.5723 44.9639 35.2988C44.7816 35.0208 44.4922 34.8818 44.0957 34.8818C43.5853 34.8818 43.2025 35.0641 42.9473 35.4287C42.6966 35.7933 42.5713 36.3721 42.5713 37.165V41ZM51.1436 37.165C51.1436 37.9215 51.2666 38.4935 51.5127 38.8809C51.7633 39.2682 52.1689 39.4619 52.7295 39.4619C53.2855 39.4619 53.6842 39.2705 53.9258 38.8877C54.1719 38.5003 54.2949 37.9261 54.2949 37.165C54.2949 36.4085 54.1719 35.8411 53.9258 35.4629C53.6797 35.0846 53.2764 34.8955 52.7158 34.8955C52.1598 34.8955 51.7588 35.0846 51.5127 35.4629C51.2666 35.8366 51.1436 36.404 51.1436 37.165ZM56.4277 37.165C56.4277 38.4092 56.0996 39.3822 55.4434 40.084C54.7871 40.7858 53.8734 41.1367 52.7021 41.1367C51.9684 41.1367 51.3213 40.9772 50.7607 40.6582C50.2002 40.3346 49.7695 39.8721 49.4688 39.2705C49.168 38.6689 49.0176 37.9671 49.0176 37.165C49.0176 35.9163 49.3434 34.9456 49.9951 34.2529C50.6468 33.5602 51.5628 33.2139 52.7432 33.2139C53.4769 33.2139 54.124 33.3734 54.6846 33.6924C55.2451 34.0114 55.6758 34.4694 55.9766 35.0664C56.2773 35.6634 56.4277 36.363 56.4277 37.165Z" fill="#5E5D5D"/>
<path d="M15.9951 1.04004L12.8309 6.50118L9.66669 11.9624L8.08454 14.6929L6.33002 17.4235C6.33002 17.4235 7.37088 19.7002 9.75706 19.7002C11.828 19.7002 13.0112 17.4235 13.0112 17.4235L19.3402 6.50118L22.5045 1.04004H15.9951Z" fill="url(#paint0_linear_8986_8735)"/>
<path d="M9.67356 11.9629L6.50934 6.50171L2.47955e-05 6.50171L6.32906 17.424C6.32906 17.424 7.51228 19.7007 9.58319 19.7007C11.9694 19.7007 13.0098 17.424 13.0098 17.424L11.2557 14.6935L9.67356 11.9629Z" fill="#30DA74"/>
<path d="M25.1546 6.38728C26.4373 6.38728 27.5106 5.31397 27.5106 4.03123C27.5106 2.74849 26.4373 1.67518 25.1546 1.67518C23.8195 1.67518 22.7985 2.74849 22.7985 4.03123C22.7985 5.31397 23.8195 6.38728 25.1546 6.38728ZM23.0865 20H27.2226V8.01033H23.0865V20ZM33.8457 8.01033H29.7095V20H33.8457V13.691C33.8457 12.7224 35.1284 11.9371 36.6729 11.9371L37.6939 7.80091C36.4373 7.80091 35.0499 8.06269 33.8457 8.69097V8.01033ZM40.4653 18.6387C41.5647 19.6597 42.9522 20.2094 44.4444 20.2094C45.9103 20.2094 47.324 19.6597 48.3973 18.6387C49.4706 17.5654 50.0727 16.178 50.0727 14.712V8.01033H45.9365V14.712C45.9365 15.4712 45.2559 16.1256 44.4444 16.1256C43.6328 16.1256 42.9522 15.4712 42.9522 14.712V8.01033H38.816V14.712C38.816 16.178 39.3919 17.5654 40.4653 18.6387ZM57.7854 0.785122C55.377 0.785122 53.4136 2.69614 53.4136 5.13072V8.01033H52V12.068H53.4136V20H57.5498V12.068H60.5341V8.01033H57.5498V5.1569C57.5498 4.99983 57.6807 4.84276 57.8378 4.84276H60.3509L61.4242 0.785122H57.7854ZM67.0958 25.5236L74.2163 8.01033H70.054L67.7765 13.6648L65.4466 8.01033H61.2842L65.7084 18.8743L63.012 25.5236H67.0958Z" fill="#3578DE"/>
<defs>
<linearGradient id="paint0_linear_8986_8735" x1="20.3851" y1="3.83918e-05" x2="6.56613" y2="22.6837" gradientUnits="userSpaceOnUse">
<stop stop-color="#3578DE"/>
<stop stop-color="#3578DE"/>
<stop offset="0.260989" stop-color="#3578DE"/>
<stop offset="0.868813" stop-color="#3578DE" stop-opacity="0.52"/>
<stop offset="0.971831" stop-color="#3578DE" stop-opacity="0"/>
</linearGradient>
</defs>
</svg>
