<svg width="150" height="150" viewBox="0 0 150 150" fill="none" xmlns="http://www.w3.org/2000/svg">
<path d="M150 75C150 65.1509 148.06 55.3982 144.291 46.2987C140.522 37.1993 134.997 28.9314 128.033 21.967C121.069 15.0026 112.801 9.47813 103.701 5.70903C94.6018 1.93993 84.8491 -1.60463e-06 75 0C65.1508 1.60463e-06 55.3981 1.93994 46.2987 5.70904C37.1993 9.47815 28.9314 15.0026 21.967 21.967C15.0026 28.9314 9.47813 37.1993 5.70903 46.2988C1.93993 55.3982 -3.20925e-06 65.1509 0 75L75 75H150Z" fill="#4FDB76"/>
<path d="M150 75C150 61.4866 146.349 48.2242 139.433 36.6148C132.517 25.0054 122.592 15.4802 110.709 9.0463C98.8252 2.61235 85.4242 -0.491386 71.9221 0.0631819C58.4201 0.61775 45.3187 4.81001 34.0029 12.1968L75 75H150Z" fill="#FDFF8A"/>
<path d="M150 75C150 62.3347 146.793 49.8757 140.677 38.7848C134.561 27.6939 125.737 18.3324 115.026 11.5733L75 75H150Z" fill="#FF4444"/>
<path d="M135 75C135 59.087 128.679 43.8258 117.426 32.5736C106.174 21.3214 90.913 15 75 15C59.087 15 43.8258 21.3214 32.5736 32.5736C21.3214 43.8258 15 59.087 15 75L75 75H135Z" fill="white"/>
<path d="M39.7885 69.172C38.7805 69.172 37.9218 69.1207 37.2125 69.018C36.5125 68.9247 35.9478 68.7753 35.5185 68.57C35.0891 68.3647 34.7718 68.0987 34.5665 67.772C34.3705 67.4453 34.2725 67.0487 34.2725 66.582C34.2725 66.078 34.4218 65.616 34.7205 65.196C35.0191 64.776 35.4858 64.412 36.1205 64.104C36.7645 63.7867 37.5905 63.544 38.5985 63.376C39.6158 63.1987 40.8385 63.11 42.2665 63.11C42.6211 63.11 42.8731 63.2033 43.0225 63.39C43.1811 63.5673 43.2605 63.7913 43.2605 64.062C43.2605 64.3513 43.1625 64.594 42.9665 64.79C42.7705 64.9767 42.4905 65.07 42.1265 65.07C41.1651 65.07 40.3158 65.1073 39.5785 65.182C38.8505 65.266 38.2391 65.3687 37.7445 65.49C37.2498 65.6207 36.8765 65.7607 36.6245 65.91C36.3818 66.0687 36.2605 66.218 36.2605 66.358C36.2605 66.47 36.2978 66.5773 36.3725 66.68C36.4471 66.7827 36.6011 66.8713 36.8345 66.946C37.0771 67.03 37.4365 67.0953 37.9125 67.142C38.3885 67.1887 39.0231 67.212 39.8165 67.212C40.0591 67.212 40.3438 67.2027 40.6705 67.184C40.9971 67.1653 41.3425 67.1373 41.7065 67.1C42.0705 67.0627 42.4251 67.0113 42.7705 66.946L42.5745 68.85C42.3225 68.9153 42.0425 68.9667 41.7345 69.004C41.4265 69.0507 41.1278 69.0833 40.8385 69.102C40.5585 69.13 40.3205 69.1487 40.1245 69.158C39.9285 69.1673 39.8165 69.172 39.7885 69.172ZM44.2201 65.28L44.7101 65.868C44.4208 66.0267 44.2388 66.19 44.1641 66.358C44.0895 66.526 44.0988 66.75 44.1921 67.03L43.2121 66.68C43.3428 66.5867 43.4875 66.5167 43.6461 66.47C43.8141 66.4327 43.9868 66.414 44.1641 66.414C44.4068 66.414 44.5935 66.4607 44.7241 66.554C44.8548 66.6473 44.9201 66.778 44.9201 66.946C44.9201 67.0767 44.8641 67.2307 44.7521 67.408C44.6401 67.5853 44.4068 67.674 44.0521 67.674C43.8095 67.674 43.5901 67.604 43.3941 67.464C43.2075 67.324 43.1141 67.1 43.1141 66.792C43.1141 66.6053 43.1515 66.414 43.2261 66.218C43.3008 66.0313 43.4175 65.854 43.5761 65.686C43.7441 65.518 43.9588 65.3827 44.2201 65.28ZM42.1201 65.07L42.2601 63.11C42.6708 63.11 42.9928 63.082 43.2261 63.026C43.4688 62.97 43.6415 62.8673 43.7441 62.718C43.8468 62.5593 43.8981 62.3353 43.8981 62.046C43.8981 61.7847 43.8608 61.472 43.7861 61.108C43.7208 60.744 43.6321 60.366 43.5201 59.974C43.4081 59.582 43.2961 59.2227 43.1841 58.896L45.1161 58.364C45.2281 58.6813 45.3401 59.05 45.4521 59.47C45.5641 59.89 45.6575 60.324 45.7321 60.772C45.8161 61.2107 45.8581 61.6353 45.8581 62.046C45.8581 62.5593 45.7928 62.9933 45.6621 63.348C45.5315 63.6933 45.3495 63.9827 45.1161 64.216C44.8921 64.44 44.6215 64.6173 44.3041 64.748C43.9961 64.8693 43.6555 64.9533 43.2821 65C42.9088 65.0467 42.5215 65.07 42.1201 65.07ZM50.5642 64.608C50.5642 64.2813 50.6062 63.8753 50.6902 63.39C50.7835 62.8953 50.9842 62.3073 51.2922 61.626L53.0142 62.228C52.8555 62.6667 52.7342 63.0447 52.6502 63.362C52.5662 63.67 52.5242 63.9733 52.5242 64.272C52.5242 64.692 52.6175 65.0513 52.8042 65.35C53.0002 65.6487 53.2849 65.8773 53.6582 66.036C54.0409 66.1947 54.5075 66.274 55.0582 66.274C55.6182 66.274 56.0849 66.2133 56.4582 66.092C56.8315 65.9707 57.1255 65.798 57.3402 65.574C57.5549 65.3593 57.7089 65.1073 57.8022 64.818C57.8955 64.5287 57.9422 64.216 57.9422 63.88C57.9422 63.6187 57.9095 63.3247 57.8442 62.998C57.7882 62.6713 57.7042 62.3167 57.5922 61.934C57.4802 61.542 57.3542 61.1313 57.2142 60.702L59.1742 60.198C59.2675 60.5527 59.3422 60.856 59.3982 61.108C59.4635 61.36 59.5195 61.57 59.5662 61.738C59.6129 61.8967 59.6502 62.0273 59.6782 62.13C59.7715 62.41 59.8975 62.62 60.0562 62.76C60.2149 62.9 60.4202 62.9933 60.6722 63.04C60.9335 63.0867 61.2462 63.11 61.6102 63.11C61.9649 63.11 62.2169 63.2033 62.3662 63.39C62.5155 63.5673 62.5902 63.7913 62.5902 64.062C62.5902 64.3513 62.4922 64.594 62.2962 64.79C62.1002 64.9767 61.8249 65.07 61.4702 65.07C61.1529 65.07 60.8355 65.028 60.5182 64.944C60.2102 64.8507 59.9442 64.7013 59.7202 64.496C59.4962 64.2907 59.3515 64.0153 59.2862 63.67L59.8042 64.23C59.7855 64.8647 59.6595 65.4293 59.4262 65.924C59.1929 66.4187 58.8662 66.8387 58.4462 67.184C58.0355 67.5293 57.5362 67.7907 56.9482 67.968C56.3695 68.1453 55.7209 68.234 55.0022 68.234C54.3769 68.234 53.7935 68.164 53.2522 68.024C52.7202 67.8933 52.2489 67.6787 51.8382 67.38C51.4369 67.0907 51.1242 66.7173 50.9002 66.26C50.6762 65.8027 50.5642 65.252 50.5642 64.608ZM55.1282 59.288C54.8389 59.288 54.5915 59.19 54.3862 58.994C54.1902 58.798 54.0922 58.5553 54.0922 58.266C54.0922 57.9767 54.1902 57.7293 54.3862 57.524C54.5915 57.3187 54.8389 57.216 55.1282 57.216C55.4082 57.216 55.6462 57.3187 55.8422 57.524C56.0475 57.7293 56.1502 57.9767 56.1502 58.266C56.1502 58.5553 56.0475 58.798 55.8422 58.994C55.6462 59.19 55.4082 59.288 55.1282 59.288ZM61.4658 65.07L61.6058 63.11H63.5658C63.8925 63.11 64.1398 63.0913 64.3078 63.054C64.4852 63.0167 64.6065 62.9607 64.6718 62.886C64.7372 62.802 64.7698 62.704 64.7698 62.592C64.7698 62.424 64.6952 62.228 64.5458 62.004C64.4058 61.78 64.2192 61.5467 63.9858 61.304C63.7618 61.0613 63.5238 60.8187 63.2718 60.576C63.0198 60.324 62.7772 60.0907 62.5438 59.876C62.3198 59.6613 62.1332 59.4747 61.9838 59.316C61.8438 59.148 61.7738 59.0267 61.7738 58.952C61.7738 58.6907 61.7878 58.4853 61.8158 58.336C61.8438 58.1773 61.8812 58.0513 61.9278 57.958C61.9838 57.8647 62.0445 57.7853 62.1098 57.72C62.2685 57.5613 62.5065 57.384 62.8238 57.188C63.1412 56.9827 63.5145 56.768 63.9438 56.544C64.3825 56.3107 64.8725 56.068 65.4138 55.816C65.9552 55.5547 66.5292 55.284 67.1358 55.004L67.9338 56.712C67.3178 56.9827 66.7672 57.2347 66.2818 57.468C65.8058 57.692 65.3765 57.902 64.9938 58.098C64.6205 58.2847 64.2845 58.462 63.9858 58.63C63.6965 58.798 63.4352 58.9567 63.2018 59.106L63.3418 58.07C63.7432 58.4153 64.1072 58.742 64.4338 59.05C64.7605 59.358 65.0638 59.666 65.3438 59.974C65.6238 60.282 65.8852 60.5993 66.1278 60.926C66.3798 61.2527 66.6225 61.6073 66.8558 61.99C67.0612 62.3167 67.2712 62.5593 67.4858 62.718C67.7098 62.8767 67.9245 62.984 68.1298 63.04C68.3445 63.0867 68.5358 63.11 68.7038 63.11C69.0585 63.11 69.3105 63.2033 69.4598 63.39C69.6185 63.5673 69.6978 63.7913 69.6978 64.062C69.6978 64.3513 69.5998 64.594 69.4038 64.79C69.2078 64.9767 68.9278 65.07 68.5638 65.07C68.2558 65.07 67.9245 65.0187 67.5698 64.916C67.2152 64.804 66.8838 64.6267 66.5758 64.384C66.2678 64.1413 66.0345 63.81 65.8758 63.39L66.6318 63.446C66.4918 63.7447 66.3238 64.0013 66.1278 64.216C65.9412 64.4213 65.7172 64.5893 65.4558 64.72C65.1945 64.8413 64.8958 64.93 64.5598 64.986C64.2238 65.042 63.8458 65.07 63.4258 65.07H61.4658ZM68.5752 65.07L68.7152 63.11C68.9485 63.11 69.1259 63.0633 69.2472 62.97C69.3685 62.8767 69.4899 62.7133 69.6112 62.48C69.7325 62.2467 69.9005 61.9293 70.1152 61.528C70.3485 61.08 70.5912 60.7067 70.8432 60.408C71.0952 60.1 71.3472 59.8573 71.5992 59.68C71.8605 59.4933 72.1172 59.3627 72.3692 59.288C72.6305 59.204 72.8872 59.162 73.1392 59.162C73.4845 59.162 73.8065 59.2367 74.1052 59.386C74.4132 59.526 74.7072 59.7733 74.9872 60.128C75.2672 60.4733 75.5332 60.9493 75.7852 61.556C75.9625 61.976 76.1399 62.298 76.3172 62.522C76.4945 62.746 76.6765 62.9 76.8632 62.984C77.0592 63.068 77.2552 63.11 77.4512 63.11C77.8059 63.11 78.0579 63.2033 78.2072 63.39C78.3565 63.5673 78.4312 63.7913 78.4312 64.062C78.4312 64.3513 78.3332 64.594 78.1372 64.79C77.9412 64.9767 77.6659 65.07 77.3112 65.07C76.8539 65.07 76.4385 64.9953 76.0652 64.846C75.6919 64.6967 75.3979 64.4727 75.1832 64.174L75.5892 63.866C75.5052 64.062 75.3792 64.2673 75.2112 64.482C75.0525 64.6967 74.8425 64.8787 74.5812 65.028C74.3292 65.1773 74.0259 65.252 73.6712 65.252C73.4379 65.252 73.1625 65.2053 72.8452 65.112C72.5372 65.028 72.2152 64.8833 71.8792 64.678C71.5525 64.4633 71.2492 64.174 70.9692 63.81C70.7919 64.1367 70.5959 64.3933 70.3812 64.58C70.1665 64.7573 69.9145 64.8833 69.6252 64.958C69.3359 65.0327 68.9859 65.07 68.5752 65.07ZM71.7812 62.158C71.8745 62.298 71.9865 62.438 72.1172 62.578C72.2479 62.718 72.3925 62.844 72.5512 62.956C72.7099 63.0587 72.8779 63.1427 73.0552 63.208C73.2419 63.2733 73.4239 63.306 73.6012 63.306C73.7879 63.306 73.9419 63.236 74.0632 63.096C74.1845 62.9467 74.1892 62.7273 74.0772 62.438C74.0305 62.3167 73.9652 62.1813 73.8812 62.032C73.8065 61.8733 73.7179 61.724 73.6152 61.584C73.5219 61.444 73.4145 61.3273 73.2932 61.234C73.1812 61.1407 73.0645 61.094 72.9432 61.094C72.8219 61.094 72.6959 61.1313 72.5652 61.206C72.4345 61.2807 72.3039 61.3973 72.1732 61.556C72.0425 61.7053 71.9119 61.906 71.7812 62.158ZM77.3115 65.07L77.4515 63.11C77.6662 63.11 77.8482 63.0587 77.9975 62.956C78.1562 62.844 78.3195 62.662 78.4875 62.41C78.6555 62.1487 78.8515 61.7987 79.0755 61.36C79.3555 60.8 79.6449 60.3613 79.9435 60.044C80.2515 59.7267 80.5642 59.5027 80.8815 59.372C81.2082 59.232 81.5349 59.162 81.8615 59.162C82.2722 59.162 82.6549 59.2507 83.0095 59.428C83.3642 59.6053 83.6722 59.848 83.9335 60.156C84.1949 60.4547 84.3955 60.8 84.5355 61.192C84.6849 61.5747 84.7595 61.9713 84.7595 62.382C84.7595 62.8767 84.6522 63.3247 84.4375 63.726C84.2322 64.118 83.9429 64.4307 83.5695 64.664C83.2055 64.888 82.7855 65 82.3095 65C81.9082 65 81.4415 64.93 80.9095 64.79C80.3775 64.65 79.8175 64.356 79.2295 63.908L79.9435 62.214C80.3635 62.5033 80.7555 62.7133 81.1195 62.844C81.4929 62.9747 81.8009 63.04 82.0435 63.04C82.2302 63.04 82.3842 63.0213 82.5055 62.984C82.6269 62.9467 82.7155 62.886 82.7715 62.802C82.8275 62.718 82.8555 62.606 82.8555 62.466C82.8555 62.27 82.8089 62.0693 82.7155 61.864C82.6222 61.6587 82.4962 61.486 82.3375 61.346C82.1882 61.1967 82.0109 61.122 81.8055 61.122C81.6095 61.122 81.4415 61.1967 81.3015 61.346C81.1709 61.486 81.0402 61.6913 80.9095 61.962C80.7882 62.2233 80.6389 62.5313 80.4615 62.886C80.2469 63.3153 80.0369 63.6747 79.8315 63.964C79.6262 64.244 79.4069 64.468 79.1735 64.636C78.9495 64.7947 78.6835 64.9067 78.3755 64.972C78.0769 65.0373 77.7222 65.07 77.3115 65.07ZM95.0467 65.294L95.4107 63.334C96.0827 63.334 96.7267 63.3013 97.3427 63.236C97.968 63.1707 98.5607 63.04 99.1207 62.844C99.69 62.648 100.222 62.3587 100.717 61.976C101.211 61.5933 101.659 61.08 102.061 60.436L103.629 61.15C103.573 61.3273 103.526 61.5 103.489 61.668C103.451 61.8267 103.433 61.9573 103.433 62.06C103.433 62.2747 103.484 62.4613 103.587 62.62C103.699 62.7787 103.885 62.9 104.147 62.984C104.408 63.068 104.767 63.11 105.225 63.11C105.579 63.11 105.831 63.2033 105.981 63.39C106.13 63.5673 106.205 63.7913 106.205 64.062C106.205 64.3513 106.107 64.594 105.911 64.79C105.724 64.9767 105.449 65.07 105.085 65.07C104.441 65.07 103.881 64.9813 103.405 64.804C102.938 64.6267 102.569 64.3793 102.299 64.062C102.037 63.7353 101.883 63.362 101.837 62.942L102.397 62.998C102.061 63.3993 101.641 63.7447 101.137 64.034C100.642 64.3233 100.077 64.5613 99.4427 64.748C98.8173 64.9347 98.1313 65.07 97.3847 65.154C96.6473 65.2473 95.868 65.294 95.0467 65.294ZM95.0327 65.294C94.0247 65.294 93.1707 65.2147 92.4707 65.056C91.78 64.9067 91.2153 64.692 90.7767 64.412C90.3473 64.1227 90.0347 63.7867 89.8387 63.404C89.6427 63.0213 89.5447 62.6013 89.5447 62.144C89.5447 61.8453 89.568 61.5467 89.6147 61.248C89.6707 60.94 89.736 60.6413 89.8107 60.352C89.8947 60.0627 89.9693 59.8013 90.0347 59.568L91.7847 59.974C91.7473 60.142 91.7053 60.324 91.6587 60.52C91.612 60.716 91.5747 60.9073 91.5467 61.094C91.5187 61.2713 91.5047 61.4347 91.5047 61.584C91.5047 61.9293 91.626 62.2373 91.8687 62.508C92.1207 62.7693 92.5313 62.9747 93.1007 63.124C93.67 63.264 94.4353 63.334 95.3967 63.334L95.6767 64.846L95.0327 65.294ZM97.6367 58.896C97.366 58.896 97.1327 58.8027 96.9367 58.616C96.75 58.42 96.6567 58.1913 96.6567 57.93C96.6567 57.6593 96.75 57.426 96.9367 57.23C97.1327 57.034 97.366 56.936 97.6367 56.936C97.898 56.936 98.122 57.034 98.3087 57.23C98.4953 57.426 98.5887 57.6593 98.5887 57.93C98.5887 58.1913 98.4953 58.42 98.3087 58.616C98.122 58.8027 97.898 58.896 97.6367 58.896ZM95.2147 58.882C94.944 58.882 94.7107 58.7887 94.5147 58.602C94.328 58.406 94.2347 58.1773 94.2347 57.916C94.2347 57.6453 94.328 57.412 94.5147 57.216C94.7107 57.02 94.944 56.922 95.2147 56.922C95.476 56.922 95.7 57.02 95.8867 57.216C96.0733 57.412 96.1667 57.6453 96.1667 57.916C96.1667 58.1773 96.0733 58.406 95.8867 58.602C95.7 58.7887 95.476 58.882 95.2147 58.882ZM108.677 68.766C108.276 68.4487 107.93 68.0567 107.641 67.59C107.352 67.1233 107.118 66.6287 106.941 66.106C106.764 65.5833 106.642 65.0793 106.577 64.594C106.437 64.7527 106.246 64.874 106.003 64.958C105.77 65.0327 105.462 65.07 105.079 65.07L105.205 63.11C105.336 63.11 105.476 63.096 105.625 63.068C105.774 63.04 105.924 62.9887 106.073 62.914C106.232 62.83 106.386 62.7087 106.535 62.55C106.684 62.3913 106.82 62.186 106.941 61.934L108.453 62.326C108.36 62.6993 108.304 63.0773 108.285 63.46C108.266 63.8427 108.285 64.216 108.341 64.58C108.406 64.9347 108.5 65.2707 108.621 65.588C108.752 65.9053 108.91 66.19 109.097 66.442C109.116 65.7607 109.218 65.1727 109.405 64.678C109.601 64.174 109.937 63.7867 110.413 63.516C110.889 63.2453 111.556 63.11 112.415 63.11C112.77 63.11 113.022 63.2033 113.171 63.39C113.33 63.5673 113.409 63.7913 113.409 64.062C113.409 64.3513 113.311 64.594 113.115 64.79C112.919 64.9767 112.644 65.07 112.289 65.07C111.785 65.07 111.402 65.1727 111.141 65.378C110.88 65.5927 110.702 65.91 110.609 66.33C110.525 66.75 110.483 67.282 110.483 67.926L108.677 68.766ZM112.284 65.07L112.424 63.11C112.835 63.11 113.157 63.082 113.39 63.026C113.633 62.97 113.806 62.8673 113.908 62.718C114.011 62.5593 114.062 62.3353 114.062 62.046C114.062 61.7847 114.025 61.472 113.95 61.108C113.885 60.744 113.796 60.366 113.684 59.974C113.572 59.582 113.46 59.2227 113.348 58.896L115.28 58.364C115.392 58.6813 115.504 59.05 115.616 59.47C115.728 59.89 115.822 60.324 115.896 60.772C115.98 61.2107 116.022 61.6353 116.022 62.046C116.022 62.5593 115.957 62.9933 115.826 63.348C115.696 63.6933 115.514 63.9827 115.28 64.216C115.056 64.44 114.786 64.6173 114.468 64.748C114.16 64.8693 113.82 64.9533 113.446 65C113.073 65.0467 112.686 65.07 112.284 65.07ZM114.006 68.29C113.736 68.29 113.502 68.1967 113.306 68.01C113.12 67.8233 113.026 67.5947 113.026 67.324C113.026 67.0533 113.12 66.8153 113.306 66.61C113.502 66.414 113.736 66.316 114.006 66.316C114.277 66.316 114.506 66.414 114.692 66.61C114.888 66.8153 114.986 67.0533 114.986 67.324C114.986 67.5947 114.888 67.8233 114.692 68.01C114.506 68.1967 114.277 68.29 114.006 68.29Z" fill="#393939"/>
<g filter="url(#filter0_d_9093_8324)">
<circle cx="135" cy="45" r="10" fill="white"/>
<circle cx="135" cy="44.9999" r="6.66667" fill="#FF4444"/>
</g>
<path d="M120.896 52.1978L117.729 58.8047L113.643 51.1627L120.896 52.1978Z" fill="#393939"/>
<defs>
<filter id="filter0_d_9093_8324" x="121" y="35" width="28" height="28" filterUnits="userSpaceOnUse" color-interpolation-filters="sRGB">
<feFlood flood-opacity="0" result="BackgroundImageFix"/>
<feColorMatrix in="SourceAlpha" type="matrix" values="0 0 0 0 0 0 0 0 0 0 0 0 0 0 0 0 0 0 127 0" result="hardAlpha"/>
<feOffset dy="4"/>
<feGaussianBlur stdDeviation="2"/>
<feColorMatrix type="matrix" values="0 0 0 0 0 0 0 0 0 0 0 0 0 0 0 0 0 0 0.25 0"/>
<feBlend mode="normal" in2="BackgroundImageFix" result="effect1_dropShadow_9093_8324"/>
<feBlend mode="normal" in="SourceGraphic" in2="effect1_dropShadow_9093_8324" result="shape"/>
</filter>
</defs>
</svg>
