<svg width="300" height="161" viewBox="0 0 300 161" fill="none" xmlns="http://www.w3.org/2000/svg">
<path d="M151.43 96.1139H158.882L159.78 103.45H160.318C162.473 97.8347 166.095 95.0268 171.182 95.0268C172.858 95.0268 174.325 95.2685 175.582 95.7516V104.627H172.26C168.728 104.627 165.915 105.654 163.82 107.707C161.725 109.76 160.677 112.9 160.677 117.126V143.754H151.43V96.1139ZM196.646 144.841C186.65 144.841 181.652 139.377 181.652 128.448V96.1139H190.899V127.27C190.899 130.833 191.678 133.338 193.234 134.787C194.85 136.176 197.184 136.871 200.237 136.871C202.332 136.871 204.277 136.357 206.073 135.331C207.869 134.244 209.275 132.735 210.293 130.803C211.37 128.87 211.909 126.636 211.909 124.1V96.1139H221.156V143.754H213.704L212.806 137.414H212.178C210.442 139.829 208.258 141.671 205.624 142.939C202.99 144.207 199.997 144.841 196.646 144.841ZM234.017 103.812H227.194V96.1139H234.017V89.1398C234.017 85.8187 234.855 83.0715 236.531 80.898C238.267 78.6637 241.11 77.5468 245.061 77.5468C246.259 77.5468 247.515 77.6674 248.83 77.9091C250.148 78.1505 251.256 78.4223 252.153 78.7241V85.2451H247.574C244.701 85.2451 243.265 86.634 243.265 89.4116V96.1139H252.153V103.812H243.265V143.754H234.017V103.812ZM266.062 160.238C263.131 160.238 260.826 159.936 259.149 159.332V153.174H263.099C268.546 153.174 272.198 150.034 274.054 143.754L255.739 96.1139H265.434L274.232 119.481C275.43 122.56 276.955 127.301 278.813 133.701H279.261C280.938 127.663 282.314 122.923 283.392 119.481L290.753 96.1139H300.001L284.38 141.309C282.224 147.347 279.801 151.996 277.107 155.257C274.413 158.578 270.731 160.238 266.062 160.238Z" fill="#393939"/>
<path d="M144.792 80.3034C144.753 80.3034 144.716 80.3112 144.68 80.326C144.645 80.3407 144.613 80.3622 144.586 80.3896C144.559 80.4167 144.537 80.4492 144.523 80.4849C144.508 80.5204 144.5 80.5585 144.5 80.5972V80.891H143.699C143.628 80.2819 143.391 79.7048 143.014 79.2239L143.581 78.6519L143.809 78.8468C143.836 78.8739 143.868 78.8957 143.904 78.9105C143.939 78.9252 143.977 78.933 144.015 78.933C144.053 78.933 144.092 78.9255 144.127 78.9107C144.162 78.896 144.194 78.8742 144.221 78.8471C144.248 78.8197 144.27 78.7872 144.285 78.7518C144.299 78.716 144.307 78.6776 144.307 78.6392C144.307 78.6006 144.299 78.5624 144.284 78.5267C144.27 78.491 144.248 78.4588 144.221 78.4314L143.251 77.4523C143.196 77.3972 143.122 77.3663 143.045 77.3663C142.967 77.3663 142.893 77.3972 142.839 77.4523C142.784 77.5073 142.754 77.582 142.754 77.6601C142.754 77.738 142.784 77.8127 142.839 77.8677L143.032 78.0979L142.465 78.6699C141.988 78.2896 141.416 78.0503 140.812 77.9789V77.1706H141.104C141.181 77.1706 141.255 77.1394 141.309 77.0844C141.364 77.0293 141.395 76.9547 141.395 76.8768C141.395 76.7989 141.364 76.7242 141.309 76.6692C141.255 76.6139 141.181 76.583 141.104 76.583H139.745C139.668 76.583 139.593 76.6139 139.539 76.6692C139.484 76.7242 139.454 76.7989 139.454 76.8768C139.454 76.9547 139.484 77.0293 139.539 77.0844C139.593 77.1394 139.668 77.1706 139.745 77.1706H140.036V77.9789C139.432 78.0503 138.86 78.2896 138.383 78.6699L137.816 78.0979L138.009 77.8677C138.037 77.8403 138.058 77.8081 138.073 77.7724C138.087 77.7367 138.095 77.6985 138.095 77.6601C138.095 77.6214 138.087 77.5833 138.073 77.5476C138.058 77.5119 138.037 77.4797 138.009 77.4523C137.983 77.4251 137.95 77.4034 137.915 77.3886C137.88 77.3739 137.842 77.3663 137.804 77.3663C137.727 77.3663 137.653 77.3972 137.598 77.4523L136.65 78.4314C136.595 78.4864 136.565 78.5611 136.565 78.639C136.565 78.7168 136.596 78.7912 136.65 78.8463C136.705 78.9013 136.779 78.9322 136.856 78.9322C136.933 78.9325 137.007 78.9016 137.062 78.8468L137.267 78.6519L137.834 79.2239C137.457 79.7048 137.22 80.2819 137.149 80.891H136.348V80.5972C136.348 80.5193 136.317 80.4446 136.263 80.3896C136.208 80.3345 136.134 80.3034 136.057 80.3034C135.979 80.3034 135.905 80.3345 135.851 80.3896C135.796 80.4446 135.766 80.5193 135.766 80.5972V81.9678C135.766 82.0457 135.796 82.1206 135.851 82.1757C135.905 82.2307 135.979 82.2616 136.057 82.2616C136.134 82.2616 136.208 82.2307 136.263 82.1757C136.317 82.1206 136.348 82.0457 136.348 81.9678V81.6743H137.149C137.22 82.2831 137.457 82.8605 137.834 83.3412L137.267 83.9134L137.039 83.7185C136.984 83.6634 136.91 83.6325 136.833 83.6325C136.756 83.6325 136.682 83.6634 136.628 83.7185C136.573 83.7735 136.542 83.8482 136.542 83.926C136.542 84.0039 136.573 84.0786 136.627 84.1336L137.598 85.1127C137.625 85.1401 137.657 85.1616 137.692 85.1764C137.728 85.1911 137.765 85.1987 137.804 85.1987C137.842 85.1987 137.88 85.1911 137.915 85.1764C137.95 85.1616 137.983 85.1401 138.009 85.1127C138.037 85.0856 138.058 85.0531 138.073 85.0174C138.087 84.982 138.095 84.9436 138.095 84.9052C138.095 84.8665 138.087 84.8284 138.073 84.7926C138.058 84.7572 138.037 84.7247 138.009 84.6973L137.816 84.4672L138.383 83.8952C138.86 84.2754 139.432 84.5147 140.036 84.5864V85.3947H139.745C139.668 85.3947 139.593 85.4256 139.539 85.4806C139.484 85.5357 139.454 85.6103 139.454 85.6882C139.454 85.7664 139.484 85.841 139.539 85.8961C139.593 85.9511 139.668 85.982 139.745 85.982H141.104C141.181 85.982 141.255 85.9511 141.309 85.8961C141.364 85.841 141.395 85.7664 141.395 85.6882C141.395 85.6103 141.364 85.5357 141.309 85.4806C141.255 85.4256 141.181 85.3947 141.104 85.3947H140.812V84.5864C141.416 84.5147 141.988 84.2754 142.465 83.8952L143.032 84.4672L142.839 84.6973C142.784 84.7526 142.754 84.8273 142.754 84.9052C142.754 84.983 142.784 85.0577 142.839 85.1127C142.893 85.1678 142.967 85.1987 143.045 85.1987C143.122 85.1987 143.196 85.1678 143.251 85.1127L144.221 84.1336C144.248 84.1065 144.27 84.074 144.284 84.0383C144.299 84.0029 144.307 83.9644 144.307 83.926C144.307 83.8874 144.299 83.8492 144.285 83.8135C144.27 83.7778 144.248 83.7453 144.221 83.7182C144.194 83.6908 144.162 83.669 144.127 83.6543C144.091 83.6398 144.053 83.632 144.015 83.632C143.977 83.632 143.939 83.6398 143.904 83.6546C143.868 83.6693 143.836 83.6911 143.809 83.7185L143.581 83.9134L143.014 83.3412C143.391 82.8605 143.628 82.2831 143.699 81.6743H144.5V81.9678C144.5 82.0457 144.531 82.1206 144.586 82.1757C144.64 82.2307 144.714 82.2616 144.792 82.2616C144.869 82.2616 144.943 82.2307 144.997 82.1757C145.052 82.1206 145.083 82.0457 145.083 81.9678V80.5972C145.083 80.5585 145.075 80.5204 145.061 80.4849C145.046 80.4492 145.025 80.4167 144.997 80.3896C144.971 80.3622 144.938 80.3407 144.903 80.326C144.868 80.3112 144.83 80.3034 144.792 80.3034Z" fill="#393939"/>
<path d="M145.083 95.381H135.766V143.719H145.083V95.381Z" fill="#393939"/>
<path d="M49.8124 42.0715L98.2411 126.215H73.335H48.4286L0 42.0715H49.8124Z" fill="#00B696"/>
<path d="M121.069 0L96.8545 42.0715L72.6403 84.1433L60.5329 105.179L48.4258 126.215C48.4258 126.215 55.0717 143.754 73.3319 143.754C89.1795 143.754 98.2383 126.215 98.2383 126.215L146.667 42.0715L170.881 0H121.069Z" fill="#00A588"/>
</svg>
