<svg xmlns="http://www.w3.org/2000/svg" xmlns:xlink="http://www.w3.org/1999/xlink" width="1242" height="1242" viewBox="0 0 1242 1242"><defs><linearGradient id="a" x1="-0.589" y1="0.5" x2="2.548" y2="0.5" gradientUnits="objectBoundingBox"><stop offset="0" stop-color="#00a6e1"/><stop offset="1" stop-color="#4fc1bc"/></linearGradient><linearGradient id="b" x1="-1.589" y1="0.5" x2="1.548" y2="0.5" xlink:href="#a"/><linearGradient id="c" x1="-0.025" y1="0.5" x2="5.435" y2="0.5" xlink:href="#a"/><linearGradient id="d" x1="-4.506" y1="0.5" x2="0.954" y2="0.5" xlink:href="#a"/><linearGradient id="f" x1="-1.479" y1="0.5" x2="1.441" y2="0.5" xlink:href="#a"/></defs><g transform="translate(-930 -63)"><g transform="translate(930 63)" fill="#1d262d" stroke="#1d262d" stroke-linecap="round" stroke-linejoin="round" stroke-width="1"><rect width="1242" height="1242" rx="119" stroke="none"/><rect x="0.5" y="0.5" width="1241" height="1241" rx="118.5" fill="none"/></g><g transform="translate(-1 -6)"><path d="M-465.743-39.089V0h-8.108V-95.977h32.7q14.963,0,23.632,7.646t8.668,21.028q0,13.513-8.339,20.863t-24.159,7.35Zm0-6.855h24.587q11.8,0,18-5.6t6.2-15.623q0-9.954-6.163-15.853t-17.5-6.031h-25.115ZM-346.7-9.031q-7.119,10.349-22.742,10.349-11.4,0-17.336-6.625t-6.064-19.611V-71.323h7.844v45.417q0,20.369,16.479,20.369,17.139,0,21.687-14.172V-71.323h7.91V0h-7.646Zm70.994-9.1a11.239,11.239,0,0,0-4.713-9.426q-4.713-3.56-14.205-5.57a64.089,64.089,0,0,1-14.733-4.614,19.627,19.627,0,0,1-7.778-6.361,15.87,15.87,0,0,1-2.538-9.1,16.97,16.97,0,0,1,7.053-13.942q7.053-5.5,18.062-5.5,11.931,0,19.149,5.9a18.935,18.935,0,0,1,7.218,15.392h-7.91a12.773,12.773,0,0,0-5.24-10.415q-5.24-4.153-13.217-4.153-7.778,0-12.491,3.461a10.679,10.679,0,0,0-4.713,9,9.727,9.727,0,0,0,3.922,8.273q3.922,2.933,14.3,5.372t15.557,5.208a20.147,20.147,0,0,1,7.679,6.658,17.042,17.042,0,0,1,2.5,9.426,17.084,17.084,0,0,1-7.284,14.436q-7.284,5.405-19.017,5.405-12.458,0-20.2-6.031t-7.745-15.26h7.91A13.717,13.717,0,0,0-308.3-9.2q5.372,3.856,14.205,3.856,8.24,0,13.315-3.625T-275.7-18.127Zm33.486-41.133a27.85,27.85,0,0,1,9.954-9.888,26.079,26.079,0,0,1,13.25-3.494q11.47,0,17.073,6.46t5.669,19.38V0h-7.844V-46.868q-.066-9.558-4.054-14.238t-12.755-4.68A19.952,19.952,0,0,0-233.877-61.2a26.838,26.838,0,0,0-8.339,12.36V0h-7.844V-101.25h7.844ZM-167.135,0h-7.91V-71.323h7.91Zm-9.294-91.956a5.34,5.34,0,0,1,1.45-3.79,5.155,5.155,0,0,1,3.955-1.549,5.263,5.263,0,0,1,3.988,1.549,5.274,5.274,0,0,1,1.483,3.79,5.162,5.162,0,0,1-1.483,3.757,5.324,5.324,0,0,1-3.988,1.516,5.214,5.214,0,0,1-3.955-1.516A5.225,5.225,0,0,1-176.429-91.956ZM-138.2-71.323l.264,12.195a28.322,28.322,0,0,1,10.02-10.052,26.039,26.039,0,0,1,13.25-3.461q11.47,0,17.073,6.46t5.669,19.38V0h-7.844V-46.868q-.066-9.558-4.054-14.238t-12.755-4.68A19.952,19.952,0,0,0-129.529-61.2a26.838,26.838,0,0,0-8.339,12.36V0h-7.844V-71.323Zm63.479,35q0-16.743,7.416-26.532t20.138-9.789q14.568,0,22.148,11.6l.4-10.283h7.383V-1.45q0,13.777-7.712,21.819t-20.9,8.042a31.739,31.739,0,0,1-14.205-3.329A27.592,27.592,0,0,1-70.7,16.216l4.417-4.746q8.372,10.283,19.907,10.283,9.888,0,15.425-5.834T-25.214-.264V-9.229Q-32.794,1.318-47.3,1.318A23.784,23.784,0,0,1-67.2-8.569q-7.515-9.888-7.515-26.7Zm7.976,1.384q0,13.645,5.471,21.522t15.425,7.877q14.568,0,20.632-13.052V-51.746A22.5,22.5,0,0,0-33.19-62.194a21.51,21.51,0,0,0-12.524-3.593q-9.954,0-15.491,7.811T-66.742-34.937ZM41.825,0V-64.863h-11.8v-6.46h11.8v-8.635q0-10.942,5.57-16.809t15.524-5.867a30.118,30.118,0,0,1,8.372,1.121L70.7-94.922a30.762,30.762,0,0,0-7.185-.791q-6.526,0-10.151,4.054t-3.625,11.5v8.833H66.742v6.46H49.735V0ZM76.5-36.716a41.97,41.97,0,0,1,3.988-18.523A30.4,30.4,0,0,1,91.758-68.06a30.362,30.362,0,0,1,16.512-4.581q14.238,0,23.071,9.987t8.833,26.466v1.648a42.338,42.338,0,0,1-3.988,18.622A29.777,29.777,0,0,1,124.948-3.164,30.818,30.818,0,0,1,108.4,1.318q-14.172,0-23.038-9.987T76.5-35.134Zm7.91,2.175q0,12.788,6.625,20.995A21.247,21.247,0,0,0,108.4-5.339a21.18,21.18,0,0,0,17.3-8.207q6.625-8.207,6.625-21.654v-1.516A36.281,36.281,0,0,0,129.3-51.68a24.364,24.364,0,0,0-8.5-10.514,21.728,21.728,0,0,0-12.524-3.724,21.077,21.077,0,0,0-17.2,8.273q-6.658,8.273-6.658,21.654ZM189.415-64.6a29.462,29.462,0,0,0-5.339-.461,19.263,19.263,0,0,0-12.491,4.12q-5.109,4.12-7.284,11.964V0h-7.844V-71.323h7.712l.132,11.338q6.262-12.656,20.1-12.656a12.973,12.973,0,0,1,5.208.857Zm30.652,48.186,1.187,6.13,1.582-6.46,17.139-54.58H246.7L263.639-17.2l1.846,7.515L267-16.611l14.634-54.712h8.174L269.044,0h-6.724L244-56.558l-.857-3.889-.857,3.955L224.286,0h-6.724l-20.7-71.323h8.108ZM349.794,0a37.3,37.3,0,0,1-1.516-9.954A27.508,27.508,0,0,1,337.7-1.615a32.4,32.4,0,0,1-13.612,2.933q-10.283,0-16.644-5.735a18.682,18.682,0,0,1-6.361-14.5A19.089,19.089,0,0,1,309.749-35.4q8.668-6.064,24.159-6.064h14.3V-49.57q0-7.646-4.713-12.03t-13.744-4.384q-8.24,0-13.645,4.219T310.7-51.614l-7.91-.066q0-8.5,7.91-14.733t19.446-6.229q11.931,0,18.82,5.966t7.086,16.644v33.75q0,10.349,2.175,15.491V0ZM325.009-5.669a26.482,26.482,0,0,0,14.139-3.823,22.5,22.5,0,0,0,9.064-10.217V-35.4H334.105q-11.8.132-18.457,4.318t-6.658,11.5a12.752,12.752,0,0,0,4.449,9.954Q317.889-5.669,325.009-5.669ZM410.043-64.6a29.462,29.462,0,0,0-5.339-.461,19.263,19.263,0,0,0-12.491,4.12q-5.109,4.12-7.284,11.964V0h-7.844V-71.323H384.8l.132,11.338q6.262-12.656,20.1-12.656a12.973,12.973,0,0,1,5.208.857Zm8.042,28.279q0-16.611,7.416-26.466t20.138-9.855q14.436,0,22.017,11.4V-101.25H475.5V0h-7.383l-.33-9.492q-7.581,10.811-22.28,10.811A23.782,23.782,0,0,1,425.632-8.6q-7.548-9.921-7.548-26.8Zm7.976,1.384q0,13.645,5.471,21.522t15.425,7.877q14.568,0,20.7-12.854V-51.877q-6.13-13.909-20.566-13.909-9.954,0-15.491,7.811T426.061-34.937ZM-319.373,121.679q0-16.743,7.416-26.532t20.138-9.789q14.568,0,22.148,11.6l.4-10.283h7.383V156.55q0,13.777-7.712,21.819t-20.9,8.042a31.739,31.739,0,0,1-14.205-3.329,27.592,27.592,0,0,1-10.646-8.866l4.417-4.746q8.372,10.283,19.907,10.283,9.888,0,15.425-5.834t5.735-16.183v-8.965q-7.581,10.547-22.083,10.547a23.784,23.784,0,0,1-19.907-9.888q-7.515-9.888-7.515-26.7Zm7.976,1.384q0,13.645,5.471,21.522t15.425,7.877q14.568,0,20.632-13.052V106.254a22.5,22.5,0,0,0-7.976-10.448,21.51,21.51,0,0,0-12.524-3.593q-9.954,0-15.491,7.811T-311.4,123.063ZM-208.367,93.4a29.462,29.462,0,0,0-5.339-.461,19.263,19.263,0,0,0-12.491,4.12q-5.109,4.12-7.284,11.964V158h-7.844V86.677h7.712l.132,11.338q6.262-12.656,20.1-12.656a12.973,12.973,0,0,1,5.208.857Zm38.826,65.918a30.962,30.962,0,0,1-16.447-4.482,30.548,30.548,0,0,1-11.437-12.491,38.945,38.945,0,0,1-4.087-17.963v-2.834a41.97,41.97,0,0,1,3.988-18.523,31.729,31.729,0,0,1,11.107-12.953,27.4,27.4,0,0,1,15.425-4.713q12.986,0,20.6,8.866t7.614,24.225v4.417h-50.889v1.516q0,12.129,6.954,20.2a22.123,22.123,0,0,0,17.5,8.075,25.7,25.7,0,0,0,11.173-2.307,24.781,24.781,0,0,0,8.8-7.383l4.944,3.757Q-153,159.318-169.541,159.318Zm-1.45-67.236a19.72,19.72,0,0,0-15,6.526q-6.1,6.526-7.416,17.534h42.781v-.857q-.33-10.283-5.867-16.743A18.181,18.181,0,0,0-170.991,92.082ZM-82.4,158a37.3,37.3,0,0,1-1.516-9.954,27.508,27.508,0,0,1-10.58,8.339,32.4,32.4,0,0,1-13.612,2.933q-10.283,0-16.644-5.735a18.682,18.682,0,0,1-6.361-14.5,19.089,19.089,0,0,1,8.668-16.479q8.668-6.064,24.159-6.064h14.3V108.43q0-7.646-4.713-12.03t-13.744-4.384q-8.24,0-13.645,4.219t-5.405,10.151l-7.91-.066q0-8.5,7.91-14.733t19.446-6.229q11.931,0,18.82,5.966t7.086,16.644v33.75q0,10.349,2.175,15.491V158Zm-24.785-5.669a26.482,26.482,0,0,0,14.139-3.823,22.5,22.5,0,0,0,9.064-10.217V122.6H-98.086q-11.8.132-18.457,4.318t-6.658,11.5a12.752,12.752,0,0,0,4.449,9.954Q-114.3,152.331-107.183,152.331Zm64.336-83.914V86.677h14.766v6.46H-42.847v47.527q0,5.933,2.142,8.833t7.152,2.9a49.074,49.074,0,0,0,6.394-.659l.33,6.46a25.564,25.564,0,0,1-8.437,1.121q-8.108,0-11.8-4.713t-3.691-13.876V93.137H-63.875v-6.46h13.118V68.417ZM29.927,158h-7.91V86.677h7.91ZM20.632,66.044a5.34,5.34,0,0,1,1.45-3.79,5.155,5.155,0,0,1,3.955-1.549,5.193,5.193,0,0,1,5.471,5.339A5.162,5.162,0,0,1,30.026,69.8a5.324,5.324,0,0,1-3.988,1.516,5.087,5.087,0,0,1-5.405-5.273Zm27.554,55.635q0-16.611,7.416-26.466T75.74,85.358q14.436,0,22.017,11.4V56.75H105.6V158H98.218l-.33-9.492q-7.581,10.811-22.28,10.811A23.782,23.782,0,0,1,55.734,149.4q-7.548-9.921-7.548-26.8Zm7.976,1.384q0,13.645,5.471,21.522t15.425,7.877q14.568,0,20.7-12.854V106.123Q91.626,92.214,77.19,92.214q-9.954,0-15.491,7.811T56.162,123.063Zm97.822,36.255a30.962,30.962,0,0,1-16.447-4.482A30.548,30.548,0,0,1,126.1,142.344a38.945,38.945,0,0,1-4.087-17.963v-2.834A41.97,41.97,0,0,1,126,103.024a31.729,31.729,0,0,1,11.107-12.953,27.4,27.4,0,0,1,15.425-4.713q12.986,0,20.6,8.866t7.614,24.225v4.417H129.858v1.516q0,12.129,6.954,20.2a22.123,22.123,0,0,0,17.5,8.075,25.7,25.7,0,0,0,11.173-2.307,24.781,24.781,0,0,0,8.8-7.383l4.944,3.757Q170.53,159.318,153.984,159.318Zm-1.45-67.236a19.72,19.72,0,0,0-15,6.526q-6.1,6.526-7.416,17.534H172.9v-.857q-.33-10.283-5.867-16.743A18.181,18.181,0,0,0,152.534,92.082ZM241.128,158a37.3,37.3,0,0,1-1.516-9.954,27.508,27.508,0,0,1-10.58,8.339,32.4,32.4,0,0,1-13.612,2.933q-10.283,0-16.644-5.735a18.682,18.682,0,0,1-6.361-14.5,19.089,19.089,0,0,1,8.668-16.479q8.668-6.064,24.159-6.064h14.3V108.43q0-7.646-4.713-12.03t-13.744-4.384q-8.24,0-13.645,4.219t-5.405,10.151l-7.91-.066q0-8.5,7.91-14.733t19.446-6.229q11.931,0,18.82,5.966t7.086,16.644v33.75q0,10.349,2.175,15.491V158Zm-24.785-5.669a26.482,26.482,0,0,0,14.139-3.823,22.5,22.5,0,0,0,9.064-10.217V122.6H225.439q-11.8.132-18.457,4.318t-6.658,11.5a12.752,12.752,0,0,0,4.449,9.954Q209.224,152.331,216.343,152.331Zm94.79-12.458a11.239,11.239,0,0,0-4.713-9.426q-4.713-3.56-14.205-5.57a64.089,64.089,0,0,1-14.733-4.614A19.627,19.627,0,0,1,269.7,113.9a15.87,15.87,0,0,1-2.538-9.1,16.97,16.97,0,0,1,7.053-13.942q7.053-5.5,18.062-5.5,11.931,0,19.149,5.9a18.935,18.935,0,0,1,7.218,15.392h-7.91a12.773,12.773,0,0,0-5.24-10.415q-5.24-4.153-13.217-4.153-7.778,0-12.491,3.461a10.679,10.679,0,0,0-4.713,9A9.727,9.727,0,0,0,279,112.813q3.922,2.933,14.3,5.372t15.557,5.208a20.147,20.147,0,0,1,7.679,6.658,18.307,18.307,0,0,1-4.779,23.862q-7.284,5.405-19.017,5.405-12.458,0-20.2-6.031t-7.745-15.26h7.91a13.717,13.717,0,0,0,5.834,10.778q5.372,3.856,14.205,3.856,8.24,0,13.315-3.625T311.133,139.873Z" transform="translate(1552 915)" fill="#f8f8f8"/><g transform="translate(811.367 26.42)"><path d="M538.034,561.2A130.277,130.277,0,0,1,407.9,431.074,174.6,174.6,0,0,1,385.127,517.5a175.6,175.6,0,0,0,305.816,0,174.6,174.6,0,0,1-22.779-86.429A130.277,130.277,0,0,1,538.034,561.2Z" transform="translate(49.191 49.191)" fill="url(#a)"/><path d="M758.224,350.135a130.277,130.277,0,0,1,130.13,130.13,174.594,174.594,0,0,1,22.778-86.429,175.6,175.6,0,0,0-305.816,0,174.608,174.608,0,0,1,22.776,86.429A130.28,130.28,0,0,1,758.224,350.135Z" transform="translate(134.817 0)" fill="url(#b)"/><path d="M281.411,304.58a22.778,22.778,0,0,0,0,45.555,130.277,130.277,0,0,1,130.13,130.13,174.6,174.6,0,0,1,22.778-86.429A175.8,175.8,0,0,0,281.411,304.58Z" transform="translate(0 0)" fill="url(#c)"/><g transform="translate(258.633 304.58)"><path d="M978.411,304.58A175.8,175.8,0,0,0,825.5,393.836a174.594,174.594,0,0,1,22.778,86.429,130.277,130.277,0,0,1,130.13-130.13,22.778,22.778,0,1,0,0-45.555Z" transform="translate(-38.189 -304.58)" fill="url(#d)"/><path d="M281.411,561.2a22.778,22.778,0,0,0,0,45.555A175.8,175.8,0,0,0,434.318,517.5a174.609,174.609,0,0,1-22.778-86.429A130.276,130.276,0,0,1,281.411,561.2Z" transform="translate(-258.633 -255.389)" fill="url(#c)"/><path d="M911.13,453.852a22.778,22.778,0,0,1-22.778-22.778A130.277,130.277,0,0,1,758.223,561.2c-71.754,0-130.131-58.376-130.131-130.13A174.608,174.608,0,0,1,605.316,517.5a175.8,175.8,0,0,0,152.909,89.256c96.873,0,175.685-78.812,175.685-175.685A22.781,22.781,0,0,1,911.13,453.852Z" transform="translate(-123.815 -255.389)" fill="url(#f)"/><path d="M538.034,350.135a130.277,130.277,0,0,1,130.13,130.13,174.581,174.581,0,0,1,22.779-86.429,175.6,175.6,0,0,0-305.816,0A174.594,174.594,0,0,1,407.9,480.265,130.277,130.277,0,0,1,538.034,350.135Z" transform="translate(-209.442 -304.58)" fill="url(#a)"/></g></g></g></g></svg>