<svg width="27" height="27" viewBox="0 0 27 27" fill="none" xmlns="http://www.w3.org/2000/svg">
<path fill-rule="evenodd" clip-rule="evenodd" d="M7.48968 18.096C7.09916 18.4865 7.09916 19.1197 7.48968 19.5102C7.8802 19.9007 8.51337 19.9007 8.90389 19.5102L13.5001 14.9139L18.0963 19.51C18.4868 19.9006 19.12 19.9006 19.5105 19.51C19.901 19.1195 19.901 18.4863 19.5105 18.0958L14.9143 13.4997L19.5104 8.90353C19.901 8.513 19.901 7.87983 19.5104 7.48931C19.1199 7.09878 18.4867 7.09878 18.0962 7.48931L13.5001 12.0855L8.90379 7.48931C8.51326 7.09879 7.88009 7.09879 7.48957 7.48931C7.09904 7.87983 7.09904 8.51299 7.48957 8.90351L12.0859 13.4997L7.48968 18.096Z" fill="#00A588"/>
<path d="M7.48968 19.5102L6.78257 20.2173L6.78257 20.2173L7.48968 19.5102ZM7.48968 18.096L8.19679 18.8031L8.19679 18.8031L7.48968 18.096ZM8.90389 19.5102L8.19678 18.8031L8.19678 18.8031L8.90389 19.5102ZM13.5001 14.9139L14.2072 14.2068C13.8167 13.8163 13.1835 13.8163 12.793 14.2068L13.5001 14.9139ZM18.0963 19.51L18.8034 18.8029L18.8034 18.8029L18.0963 19.51ZM19.5105 19.51L20.2176 20.2171L20.2176 20.2171L19.5105 19.51ZM19.5105 18.0958L18.8034 18.8029L18.8034 18.8029L19.5105 18.0958ZM14.9143 13.4997L14.2072 12.7926C14.0196 12.9802 13.9143 13.2345 13.9143 13.4997C13.9143 13.7649 14.0197 14.0193 14.2072 14.2068L14.9143 13.4997ZM19.5104 8.90353L18.8033 8.19642L18.8033 8.19642L19.5104 8.90353ZM19.5104 7.48931L18.8033 8.19641L18.8033 8.19641L19.5104 7.48931ZM18.0962 7.48931L18.8033 8.19641L18.8033 8.19641L18.0962 7.48931ZM13.5001 12.0855L12.793 12.7926C13.1835 13.1831 13.8167 13.1831 14.2072 12.7926L13.5001 12.0855ZM8.90379 7.48931L9.61089 6.7822L9.61089 6.7822L8.90379 7.48931ZM7.48957 7.48931L8.19667 8.19642L7.48957 7.48931ZM7.48957 8.90351L6.78246 9.61063L6.78247 9.61063L7.48957 8.90351ZM12.0859 13.4997L12.793 14.2068C12.9805 14.0193 13.0859 13.7649 13.0859 13.4997C13.0859 13.2345 12.9805 12.9802 12.793 12.7926L12.0859 13.4997ZM8.19679 18.8031L8.19679 18.8031L6.78257 17.3889C6.00153 18.1699 6.00153 19.4362 6.78257 20.2173L8.19679 18.8031ZM8.19678 18.8031L8.19679 18.8031L6.78257 20.2173C7.56362 20.9983 8.82995 20.9983 9.611 20.2173L8.19678 18.8031ZM12.793 14.2068L8.19678 18.8031L9.611 20.2173L14.2072 15.621L12.793 14.2068ZM18.8034 18.8029L14.2072 14.2068L12.793 15.621L17.3892 20.2171L18.8034 18.8029ZM18.8034 18.8029L18.8034 18.8029L17.3892 20.2171C18.1702 20.9982 19.4365 20.9982 20.2176 20.2171L18.8034 18.8029ZM18.8034 18.8029L18.8034 18.8029L20.2176 20.2171C20.9986 19.4361 20.9986 18.1698 20.2176 17.3887L18.8034 18.8029ZM14.2072 14.2068L18.8034 18.8029L20.2176 17.3887L15.6214 12.7926L14.2072 14.2068ZM18.8033 8.19642L14.2072 12.7926L15.6214 14.2068L20.2175 9.61063L18.8033 8.19642ZM18.8033 8.19641L18.8033 8.19642L20.2175 9.61063C20.9986 8.82958 20.9986 7.56325 20.2175 6.7822L18.8033 8.19641ZM18.8033 8.19641L18.8033 8.19641L20.2175 6.7822C19.4365 6.00115 18.1702 6.00114 17.3891 6.7822L18.8033 8.19641ZM14.2072 12.7926L18.8033 8.19641L17.3891 6.7822L12.793 11.3784L14.2072 12.7926ZM8.19669 8.19642L12.793 12.7926L14.2072 11.3784L9.61089 6.7822L8.19669 8.19642ZM8.19667 8.19642L8.19669 8.19642L9.61089 6.7822C8.82984 6.00116 7.56351 6.00116 6.78246 6.7822L8.19667 8.19642ZM8.19667 8.1964L8.19667 8.19642L6.78246 6.7822C6.00141 7.56325 6.0014 8.82958 6.78246 9.61063L8.19667 8.1964ZM12.793 12.7926L8.19667 8.1964L6.78247 9.61063L11.3788 14.2068L12.793 12.7926ZM8.19679 18.8031L12.793 14.2068L11.3788 12.7926L6.78257 17.3889L8.19679 18.8031Z" fill="#00A588"/>
</svg>
