<svg width="19" height="19" viewBox="0 0 19 19" fill="none" xmlns="http://www.w3.org/2000/svg">
<path fill-rule="evenodd" clip-rule="evenodd" d="M10.5 2C10.5 1.44772 10.0523 1 9.5 1C8.94772 1 8.5 1.44772 8.5 2V8.5H2C1.44772 8.5 1 8.94772 1 9.5C1 10.0523 1.44772 10.5 2 10.5H8.5V17C8.5 17.5523 8.94772 18 9.5 18C10.0523 18 10.5 17.5523 10.5 17V10.5H17C17.5523 10.5 18 10.0523 18 9.5C18 8.94772 17.5523 8.5 17 8.5H10.5V2Z" fill="#00A588"/>
<path d="M8.5 8.5V9.5C9.05229 9.5 9.5 9.05229 9.5 8.5H8.5ZM8.5 10.5H9.5C9.5 9.94771 9.05229 9.5 8.5 9.5V10.5ZM10.5 10.5V9.5C9.94771 9.5 9.5 9.94771 9.5 10.5H10.5ZM10.5 8.5H9.5C9.5 9.05229 9.94771 9.5 10.5 9.5V8.5ZM9.5 2H11.5C11.5 0.895431 10.6046 0 9.5 0V2ZM9.5 2V0C8.39543 0 7.5 0.89543 7.5 2H9.5ZM9.5 8.5V2H7.5V8.5H9.5ZM2 9.5H8.5V7.5H2V9.5ZM2 9.5V7.5C0.89543 7.5 0 8.39543 0 9.5H2ZM2 9.5H0C0 10.6046 0.895431 11.5 2 11.5V9.5ZM8.5 9.5H2V11.5H8.5V9.5ZM9.5 17V10.5H7.5V17H9.5ZM9.5 17H7.5C7.5 18.1046 8.39543 19 9.5 19V17ZM9.5 17V19C10.6046 19 11.5 18.1046 11.5 17H9.5ZM9.5 10.5V17H11.5V10.5H9.5ZM17 9.5H10.5V11.5H17V9.5ZM17 9.5V11.5C18.1046 11.5 19 10.6046 19 9.5H17ZM17 9.5H19C19 8.39543 18.1046 7.5 17 7.5V9.5ZM10.5 9.5H17V7.5H10.5V9.5ZM9.5 2V8.5H11.5V2H9.5Z" fill="#3074DC"/>
</svg>
