<svg width="150" height="150" viewBox="0 0 150 150" fill="none" xmlns="http://www.w3.org/2000/svg">
<path d="M150 75C150 65.1509 148.06 55.3982 144.291 46.2987C140.522 37.1993 134.997 28.9314 128.033 21.967C121.069 15.0026 112.801 9.47813 103.701 5.70903C94.6018 1.93993 84.8491 -1.60463e-06 75 0C65.1508 1.60463e-06 55.3981 1.93994 46.2987 5.70904C37.1993 9.47815 28.9314 15.0026 21.967 21.967C15.0026 28.9314 9.47813 37.1993 5.70903 46.2988C1.93993 55.3982 -3.20925e-06 65.1509 0 75L75 75H150Z" fill="#4FDB76"/>
<path d="M150 75C150 61.4866 146.349 48.2242 139.433 36.6148C132.517 25.0054 122.592 15.4802 110.709 9.0463C98.8252 2.61235 85.4242 -0.491386 71.9221 0.0631819C58.4201 0.61775 45.3187 4.81001 34.0029 12.1968L75 75H150Z" fill="#FDFF8A"/>
<path d="M150 75C150 62.3347 146.793 49.8757 140.677 38.7848C134.561 27.6939 125.737 18.3324 115.026 11.5733L75 75H150Z" fill="#FF4444"/>
<path d="M135 75C135 59.087 128.679 43.8258 117.426 32.5736C106.174 21.3214 90.913 15 75 15C59.087 15 43.8258 21.3214 32.5736 32.5736C21.3214 43.8258 15 59.087 15 75L75 75H135Z" fill="white"/>
<path d="M68.8896 65H66.7773V60.6865H62.8193V65H60.7002V55.0059H62.8193V58.9229H66.7773V55.0059H68.8896V65ZM73.3398 57.3574V65H71.2549V57.3574H73.3398ZM72.3008 54.3633C72.6107 54.3633 72.8773 54.4362 73.1006 54.582C73.3239 54.7233 73.4355 54.9899 73.4355 55.3818C73.4355 55.7692 73.3239 56.0381 73.1006 56.1885C72.8773 56.3343 72.6107 56.4072 72.3008 56.4072C71.9863 56.4072 71.7174 56.3343 71.4941 56.1885C71.2754 56.0381 71.166 55.7692 71.166 55.3818C71.166 54.9899 71.2754 54.7233 71.4941 54.582C71.7174 54.4362 71.9863 54.3633 72.3008 54.3633ZM77.7695 68.3633C76.7031 68.3633 75.8874 68.1764 75.3223 67.8027C74.7617 67.4336 74.4814 66.9141 74.4814 66.2441C74.4814 65.7839 74.625 65.3988 74.9121 65.0889C75.1992 64.779 75.6208 64.5579 76.1768 64.4258C75.9626 64.3346 75.7757 64.1865 75.6162 63.9814C75.4567 63.7718 75.377 63.5508 75.377 63.3184C75.377 63.0267 75.4613 62.7852 75.6299 62.5938C75.7985 62.3978 76.0423 62.2064 76.3613 62.0195C75.9603 61.8464 75.6413 61.5684 75.4043 61.1855C75.1719 60.8027 75.0557 60.3516 75.0557 59.832C75.0557 59.276 75.1764 58.8044 75.418 58.417C75.6641 58.0251 76.0195 57.7266 76.4844 57.5215C76.9538 57.3164 77.5234 57.2139 78.1934 57.2139C78.3346 57.2139 78.4987 57.223 78.6855 57.2412C78.8724 57.2594 79.0433 57.2799 79.1982 57.3027C79.3577 57.3255 79.4648 57.3438 79.5195 57.3574H82.1855V58.417L80.9893 58.7246C81.0986 58.8932 81.1807 59.0732 81.2354 59.2646C81.29 59.4561 81.3174 59.6589 81.3174 59.873C81.3174 60.6934 81.0303 61.3337 80.4561 61.7939C79.8864 62.2497 79.0934 62.4775 78.0771 62.4775C77.8356 62.4639 77.6077 62.4456 77.3936 62.4229C77.2887 62.5049 77.209 62.5915 77.1543 62.6826C77.0996 62.7738 77.0723 62.8695 77.0723 62.9697C77.0723 63.07 77.1133 63.1543 77.1953 63.2227C77.2819 63.2865 77.4095 63.3366 77.5781 63.373C77.7513 63.4049 77.9655 63.4209 78.2207 63.4209H79.5195C80.3581 63.4209 80.9961 63.6009 81.4336 63.9609C81.8757 64.321 82.0967 64.8496 82.0967 65.5469C82.0967 66.4401 81.723 67.1328 80.9756 67.625C80.2327 68.1172 79.1641 68.3633 77.7695 68.3633ZM77.8584 67.0029C78.3551 67.0029 78.7812 66.9551 79.1367 66.8594C79.4967 66.7682 79.7725 66.6361 79.9639 66.4629C80.1553 66.2943 80.251 66.0915 80.251 65.8545C80.251 65.6631 80.194 65.5104 80.0801 65.3965C79.9707 65.2871 79.8021 65.2096 79.5742 65.1641C79.3509 65.1185 79.0638 65.0957 78.7129 65.0957H77.6328C77.3776 65.0957 77.1475 65.1367 76.9424 65.2188C76.7419 65.3008 76.5824 65.4147 76.4639 65.5605C76.3454 65.7109 76.2861 65.8841 76.2861 66.0801C76.2861 66.3672 76.4229 66.5928 76.6963 66.7568C76.9743 66.9209 77.3617 67.0029 77.8584 67.0029ZM78.1934 61.2061C78.5853 61.2061 78.8724 61.0853 79.0547 60.8438C79.237 60.6022 79.3281 60.2741 79.3281 59.8594C79.3281 59.3991 79.2324 59.055 79.041 58.8271C78.8542 58.5947 78.5716 58.4785 78.1934 58.4785C77.8105 58.4785 77.5234 58.5947 77.332 58.8271C77.1406 59.055 77.0449 59.3991 77.0449 59.8594C77.0449 60.2741 77.1383 60.6022 77.3252 60.8438C77.5166 61.0853 77.806 61.2061 78.1934 61.2061ZM85.5352 54.3633V56.5303C85.5352 56.9085 85.5215 57.2686 85.4941 57.6104C85.4714 57.9521 85.4531 58.1937 85.4395 58.335H85.5488C85.7129 58.0706 85.9066 57.8564 86.1299 57.6924C86.3577 57.5283 86.6084 57.4076 86.8818 57.3301C87.1553 57.2526 87.4492 57.2139 87.7637 57.2139C88.3151 57.2139 88.7959 57.3118 89.2061 57.5078C89.6162 57.6992 89.9352 58.0023 90.1631 58.417C90.391 58.8271 90.5049 59.3604 90.5049 60.0166V65H88.4199V60.5361C88.4199 59.9893 88.3197 59.5768 88.1191 59.2988C87.9186 59.0208 87.6087 58.8818 87.1895 58.8818C86.7702 58.8818 86.4398 58.9798 86.1982 59.1758C85.9567 59.3672 85.7858 59.652 85.6855 60.0303C85.5853 60.404 85.5352 60.862 85.5352 61.4043V65H83.4502V54.3633H85.5352Z" fill="#393939"/>
<g filter="url(#filter0_d_9564_12312)">
<circle cx="135" cy="45" r="10" fill="white"/>
<circle cx="135" cy="44.9999" r="6.66667" fill="#FF4444"/>
</g>
<path d="M120.896 52.1978L117.729 58.8047L113.643 51.1627L120.896 52.1978Z" fill="#393939"/>
<defs>
<filter id="filter0_d_9564_12312" x="121" y="35" width="28" height="28" filterUnits="userSpaceOnUse" color-interpolation-filters="sRGB">
<feFlood flood-opacity="0" result="BackgroundImageFix"/>
<feColorMatrix in="SourceAlpha" type="matrix" values="0 0 0 0 0 0 0 0 0 0 0 0 0 0 0 0 0 0 127 0" result="hardAlpha"/>
<feOffset dy="4"/>
<feGaussianBlur stdDeviation="2"/>
<feColorMatrix type="matrix" values="0 0 0 0 0 0 0 0 0 0 0 0 0 0 0 0 0 0 0.25 0"/>
<feBlend mode="normal" in2="BackgroundImageFix" result="effect1_dropShadow_9564_12312"/>
<feBlend mode="normal" in="SourceGraphic" in2="effect1_dropShadow_9564_12312" result="shape"/>
</filter>
</defs>
</svg>
