<svg width="150" height="150" viewBox="0 0 150 150" fill="none" xmlns="http://www.w3.org/2000/svg">
<path d="M150 75C150 65.1509 148.06 55.3982 144.291 46.2987C140.522 37.1993 134.997 28.9314 128.033 21.967C121.069 15.0026 112.801 9.47813 103.701 5.70903C94.6018 1.93993 84.8491 -1.60463e-06 75 0C65.1508 1.60463e-06 55.3981 1.93994 46.2987 5.70904C37.1993 9.47815 28.9314 15.0026 21.967 21.967C15.0026 28.9314 9.47813 37.1993 5.70903 46.2988C1.93993 55.3982 -3.20925e-06 65.1509 0 75L75 75H150Z" fill="#4FDB76"/>
<path d="M150 75C150 61.4866 146.349 48.2242 139.433 36.6148C132.517 25.0054 122.592 15.4802 110.709 9.0463C98.8252 2.61235 85.4242 -0.491386 71.9221 0.0631819C58.4201 0.61775 45.3187 4.81001 34.0029 12.1968L75 75H150Z" fill="#FDFF8A"/>
<path d="M150 75C150 62.3347 146.793 49.8757 140.677 38.7848C134.561 27.6939 125.737 18.3324 115.026 11.5733L75 75H150Z" fill="#FF4444"/>
<path d="M135 75C135 59.087 128.679 43.8258 117.426 32.5736C106.174 21.3214 90.913 15 75 15C59.087 15 43.8258 21.3214 32.5736 32.5736C21.3214 43.8258 15 59.087 15 75L75 75H135Z" fill="white"/>
<path d="M60.9521 45.0059H64.0625C65.3932 45.0059 66.4004 45.1927 67.084 45.5664C67.7676 45.9401 68.1094 46.5964 68.1094 47.5352C68.1094 47.9134 68.0479 48.2552 67.9248 48.5605C67.8063 48.8659 67.6331 49.1165 67.4053 49.3125C67.1774 49.5085 66.8994 49.6361 66.5713 49.6953V49.7637C66.904 49.832 67.2048 49.9505 67.4736 50.1191C67.7425 50.2832 67.9567 50.5247 68.1162 50.8438C68.2803 51.1582 68.3623 51.5775 68.3623 52.1016C68.3623 52.7077 68.2142 53.2272 67.918 53.6602C67.6217 54.0931 67.1979 54.4258 66.6465 54.6582C66.0996 54.8861 65.4479 55 64.6914 55H60.9521V45.0059ZM63.0713 48.9639H64.3018C64.917 48.9639 65.3431 48.8682 65.5801 48.6768C65.8171 48.4808 65.9355 48.1937 65.9355 47.8154C65.9355 47.4326 65.7943 47.1592 65.5117 46.9951C65.2337 46.8265 64.7917 46.7422 64.1855 46.7422H63.0713V48.9639ZM63.0713 50.6455V53.25H64.4521C65.0902 53.25 65.5345 53.127 65.7852 52.8809C66.0358 52.6348 66.1611 52.3044 66.1611 51.8896C66.1611 51.6436 66.1064 51.4271 65.9971 51.2402C65.8877 51.0534 65.7031 50.9076 65.4434 50.8027C65.1882 50.6979 64.835 50.6455 64.3838 50.6455H63.0713ZM73.3252 47.2002C74.3506 47.2002 75.1367 47.4235 75.6836 47.8701C76.2305 48.3167 76.5039 48.9958 76.5039 49.9072V55H75.0479L74.6445 53.9609H74.5898C74.3711 54.2344 74.1478 54.4577 73.9199 54.6309C73.6921 54.804 73.43 54.9316 73.1338 55.0137C72.8376 55.0957 72.4775 55.1367 72.0537 55.1367C71.6025 55.1367 71.1969 55.0501 70.8369 54.877C70.4814 54.7038 70.2012 54.4395 69.9961 54.084C69.791 53.724 69.6885 53.2682 69.6885 52.7168C69.6885 51.9056 69.9733 51.3086 70.543 50.9258C71.1126 50.5384 71.9671 50.3242 73.1064 50.2832L74.4326 50.2422V49.9072C74.4326 49.5062 74.3278 49.2122 74.1182 49.0254C73.9085 48.8385 73.6169 48.7451 73.2432 48.7451C72.874 48.7451 72.5117 48.7975 72.1562 48.9023C71.8008 49.0072 71.4453 49.1393 71.0898 49.2988L70.3994 47.8906C70.805 47.6764 71.2585 47.5078 71.7598 47.3848C72.2656 47.2617 72.7874 47.2002 73.3252 47.2002ZM74.4326 51.459L73.626 51.4863C72.9515 51.5046 72.4821 51.6253 72.2178 51.8486C71.958 52.0719 71.8281 52.3659 71.8281 52.7305C71.8281 53.0495 71.9215 53.2773 72.1084 53.4141C72.2952 53.5462 72.5391 53.6123 72.8398 53.6123C73.2865 53.6123 73.6624 53.4801 73.9678 53.2158C74.2777 52.9515 74.4326 52.5755 74.4326 52.0879V51.459ZM78.042 58.3633C77.805 58.3633 77.5589 58.3451 77.3037 58.3086C77.0485 58.2767 76.8366 58.238 76.668 58.1924V56.5518C76.8366 56.5973 76.9961 56.6292 77.1465 56.6475C77.2923 56.6702 77.4587 56.6816 77.6455 56.6816C77.9281 56.6816 78.1673 56.6019 78.3633 56.4424C78.5592 56.2874 78.6572 55.9798 78.6572 55.5195V47.3574H80.7422V55.8271C80.7422 56.292 80.6533 56.7158 80.4756 57.0986C80.2979 57.486 80.0107 57.7936 79.6143 58.0215C79.2178 58.2493 78.6937 58.3633 78.042 58.3633ZM78.5684 45.3818C78.5684 44.9899 78.6777 44.7233 78.8965 44.582C79.1198 44.4362 79.3887 44.3633 79.7031 44.3633C80.013 44.3633 80.2796 44.4362 80.5029 44.582C80.7262 44.7233 80.8379 44.9899 80.8379 45.3818C80.8379 45.7692 80.7262 46.0381 80.5029 46.1885C80.2796 46.3343 80.013 46.4072 79.7031 46.4072C79.3887 46.4072 79.1198 46.3343 78.8965 46.1885C78.6777 46.0381 78.5684 45.7692 78.5684 45.3818ZM86.0674 47.2002C87.0928 47.2002 87.8789 47.4235 88.4258 47.8701C88.9727 48.3167 89.2461 48.9958 89.2461 49.9072V55H87.79L87.3867 53.9609H87.332C87.1133 54.2344 86.89 54.4577 86.6621 54.6309C86.4342 54.804 86.1722 54.9316 85.876 55.0137C85.5798 55.0957 85.2197 55.1367 84.7959 55.1367C84.3447 55.1367 83.9391 55.0501 83.5791 54.877C83.2236 54.7038 82.9434 54.4395 82.7383 54.084C82.5332 53.724 82.4307 53.2682 82.4307 52.7168C82.4307 51.9056 82.7155 51.3086 83.2852 50.9258C83.8548 50.5384 84.7093 50.3242 85.8486 50.2832L87.1748 50.2422V49.9072C87.1748 49.5062 87.07 49.2122 86.8604 49.0254C86.6507 48.8385 86.359 48.7451 85.9854 48.7451C85.6162 48.7451 85.2539 48.7975 84.8984 48.9023C84.543 49.0072 84.1875 49.1393 83.832 49.2988L83.1416 47.8906C83.5472 47.6764 84.0007 47.5078 84.502 47.3848C85.0078 47.2617 85.5296 47.2002 86.0674 47.2002ZM87.1748 51.459L86.3682 51.4863C85.6937 51.5046 85.2243 51.6253 84.96 51.8486C84.7002 52.0719 84.5703 52.3659 84.5703 52.7305C84.5703 53.0495 84.6637 53.2773 84.8506 53.4141C85.0374 53.5462 85.2812 53.6123 85.582 53.6123C86.0286 53.6123 86.4046 53.4801 86.71 53.2158C87.0199 52.9515 87.1748 52.5755 87.1748 52.0879V51.459ZM35.8027 67.2139C36.6641 67.2139 37.359 67.5488 37.8877 68.2188C38.4209 68.8887 38.6875 69.8708 38.6875 71.165C38.6875 72.0309 38.5622 72.7601 38.3115 73.3525C38.0609 73.9404 37.7145 74.3848 37.2725 74.6855C36.8304 74.9863 36.3223 75.1367 35.748 75.1367C35.3789 75.1367 35.0622 75.0911 34.7979 75C34.5335 74.9043 34.3079 74.7835 34.1211 74.6377C33.9342 74.4873 33.7725 74.3278 33.6357 74.1592H33.5264C33.5628 74.3415 33.5902 74.5283 33.6084 74.7197C33.6266 74.9111 33.6357 75.098 33.6357 75.2803V78.3633H31.5508V67.3574H33.2461L33.54 68.3486H33.6357C33.7725 68.1436 33.9388 67.9544 34.1348 67.7812C34.3307 67.6081 34.5654 67.4714 34.8389 67.3711C35.1169 67.2663 35.4382 67.2139 35.8027 67.2139ZM35.1328 68.8818C34.7682 68.8818 34.4788 68.957 34.2646 69.1074C34.0505 69.2578 33.8932 69.4834 33.793 69.7842C33.6973 70.085 33.6449 70.4655 33.6357 70.9258V71.1514C33.6357 71.6436 33.6813 72.0605 33.7725 72.4023C33.8682 72.7441 34.0254 73.0039 34.2441 73.1816C34.4674 73.3594 34.7728 73.4482 35.1602 73.4482C35.4792 73.4482 35.7412 73.3594 35.9463 73.1816C36.1514 73.0039 36.304 72.7441 36.4043 72.4023C36.5091 72.056 36.5615 71.6344 36.5615 71.1377C36.5615 70.3903 36.4453 69.8275 36.2129 69.4492C35.9805 69.071 35.6204 68.8818 35.1328 68.8818ZM44.6758 67.2139C44.7806 67.2139 44.9014 67.2207 45.0381 67.2344C45.1794 67.2435 45.2933 67.2572 45.3799 67.2754L45.2227 69.2305C45.1543 69.2077 45.0563 69.1917 44.9287 69.1826C44.8057 69.1689 44.6986 69.1621 44.6074 69.1621C44.3385 69.1621 44.0765 69.1963 43.8213 69.2646C43.5706 69.333 43.3451 69.4447 43.1445 69.5996C42.944 69.75 42.7845 69.9505 42.666 70.2012C42.5521 70.4473 42.4951 70.7503 42.4951 71.1104V75H40.4102V67.3574H41.9893L42.2969 68.6426H42.3994C42.5498 68.3828 42.7367 68.1458 42.96 67.9316C43.1878 67.7129 43.4453 67.5397 43.7324 67.4121C44.0241 67.2799 44.3385 67.2139 44.6758 67.2139ZM53.7129 71.165C53.7129 71.8031 53.6263 72.3682 53.4531 72.8604C53.2845 73.3525 53.0361 73.7695 52.708 74.1113C52.3844 74.4486 51.9925 74.7038 51.5322 74.877C51.0765 75.0501 50.5615 75.1367 49.9873 75.1367C49.4495 75.1367 48.9551 75.0501 48.5039 74.877C48.0573 74.7038 47.6676 74.4486 47.335 74.1113C47.0068 73.7695 46.7516 73.3525 46.5693 72.8604C46.3916 72.3682 46.3027 71.8031 46.3027 71.165C46.3027 70.3174 46.4531 69.5996 46.7539 69.0117C47.0547 68.4238 47.4831 67.9772 48.0391 67.6719C48.5951 67.3665 49.2581 67.2139 50.0283 67.2139C50.7438 67.2139 51.3773 67.3665 51.9287 67.6719C52.4847 67.9772 52.9199 68.4238 53.2344 69.0117C53.5534 69.5996 53.7129 70.3174 53.7129 71.165ZM48.4287 71.165C48.4287 71.6663 48.4834 72.0879 48.5928 72.4297C48.7021 72.7715 48.873 73.029 49.1055 73.2021C49.3379 73.3753 49.641 73.4619 50.0146 73.4619C50.3838 73.4619 50.6823 73.3753 50.9102 73.2021C51.1426 73.029 51.3112 72.7715 51.416 72.4297C51.5254 72.0879 51.5801 71.6663 51.5801 71.165C51.5801 70.6592 51.5254 70.2399 51.416 69.9072C51.3112 69.57 51.1426 69.3171 50.9102 69.1484C50.6777 68.9798 50.3747 68.8955 50.001 68.8955C49.4495 68.8955 49.0485 69.0846 48.7979 69.4629C48.5518 69.8411 48.4287 70.4085 48.4287 71.165ZM57.5205 64.3633V66.8379C57.5205 67.125 57.5114 67.4098 57.4932 67.6924C57.4795 67.9749 57.4613 68.1937 57.4385 68.3486H57.5205C57.721 68.0342 57.9945 67.7676 58.3408 67.5488C58.6872 67.3255 59.1361 67.2139 59.6875 67.2139C60.5443 67.2139 61.2393 67.5488 61.7725 68.2188C62.3057 68.8887 62.5723 69.8708 62.5723 71.165C62.5723 72.0355 62.4492 72.7669 62.2031 73.3594C61.957 73.9473 61.613 74.3916 61.1709 74.6924C60.7288 74.9886 60.2161 75.1367 59.6328 75.1367C59.0723 75.1367 58.6302 75.0365 58.3066 74.8359C57.9831 74.6354 57.721 74.4098 57.5205 74.1592H57.377L57.0283 75H55.4355V64.3633H57.5205ZM59.0176 68.8818C58.653 68.8818 58.3636 68.957 58.1494 69.1074C57.9352 69.2578 57.778 69.4834 57.6777 69.7842C57.582 70.085 57.5296 70.4655 57.5205 70.9258V71.1514C57.5205 71.8942 57.6299 72.4639 57.8486 72.8604C58.0674 73.2523 58.4661 73.4482 59.0449 73.4482C59.4733 73.4482 59.8128 73.25 60.0635 72.8535C60.3187 72.457 60.4463 71.8851 60.4463 71.1377C60.4463 70.3903 60.3187 69.8275 60.0635 69.4492C59.8083 69.071 59.4596 68.8818 59.0176 68.8818ZM67.4258 67.2002C68.4512 67.2002 69.2373 67.4235 69.7842 67.8701C70.3311 68.3167 70.6045 68.9958 70.6045 69.9072V75H69.1484L68.7451 73.9609H68.6904C68.4717 74.2344 68.2484 74.4577 68.0205 74.6309C67.7926 74.804 67.5306 74.9316 67.2344 75.0137C66.9382 75.0957 66.5781 75.1367 66.1543 75.1367C65.7031 75.1367 65.2975 75.0501 64.9375 74.877C64.582 74.7038 64.3018 74.4395 64.0967 74.084C63.8916 73.724 63.7891 73.2682 63.7891 72.7168C63.7891 71.9056 64.0739 71.3086 64.6436 70.9258C65.2132 70.5384 66.0677 70.3242 67.207 70.2832L68.5332 70.2422V69.9072C68.5332 69.5062 68.4284 69.2122 68.2188 69.0254C68.0091 68.8385 67.7174 68.7451 67.3438 68.7451C66.9746 68.7451 66.6123 68.7975 66.2568 68.9023C65.9014 69.0072 65.5459 69.1393 65.1904 69.2988L64.5 67.8906C64.9056 67.6764 65.359 67.5078 65.8604 67.3848C66.3662 67.2617 66.888 67.2002 67.4258 67.2002ZM68.5332 71.459L67.7266 71.4863C67.0521 71.5046 66.5827 71.6253 66.3184 71.8486C66.0586 72.0719 65.9287 72.3659 65.9287 72.7305C65.9287 73.0495 66.0221 73.2773 66.209 73.4141C66.3958 73.5462 66.6396 73.6123 66.9404 73.6123C67.387 73.6123 67.763 73.4801 68.0684 73.2158C68.3783 72.9515 68.5332 72.5755 68.5332 72.0879V71.459ZM74.8428 64.3633V66.8379C74.8428 67.125 74.8337 67.4098 74.8154 67.6924C74.8018 67.9749 74.7835 68.1937 74.7607 68.3486H74.8428C75.0433 68.0342 75.3167 67.7676 75.6631 67.5488C76.0094 67.3255 76.4583 67.2139 77.0098 67.2139C77.8665 67.2139 78.5615 67.5488 79.0947 68.2188C79.6279 68.8887 79.8945 69.8708 79.8945 71.165C79.8945 72.0355 79.7715 72.7669 79.5254 73.3594C79.2793 73.9473 78.9352 74.3916 78.4932 74.6924C78.0511 74.9886 77.5384 75.1367 76.9551 75.1367C76.3945 75.1367 75.9525 75.0365 75.6289 74.8359C75.3053 74.6354 75.0433 74.4098 74.8428 74.1592H74.6992L74.3506 75H72.7578V64.3633H74.8428ZM76.3398 68.8818C75.9753 68.8818 75.6859 68.957 75.4717 69.1074C75.2575 69.2578 75.1003 69.4834 75 69.7842C74.9043 70.085 74.8519 70.4655 74.8428 70.9258V71.1514C74.8428 71.8942 74.9521 72.4639 75.1709 72.8604C75.3896 73.2523 75.7884 73.4482 76.3672 73.4482C76.7956 73.4482 77.1351 73.25 77.3857 72.8535C77.641 72.457 77.7686 71.8851 77.7686 71.1377C77.7686 70.3903 77.641 69.8275 77.3857 69.4492C77.1305 69.071 76.7819 68.8818 76.3398 68.8818ZM83.7021 67.3574V75H81.6172V67.3574H83.7021ZM82.6631 64.3633C82.973 64.3633 83.2396 64.4362 83.4629 64.582C83.6862 64.7233 83.7979 64.9899 83.7979 65.3818C83.7979 65.7692 83.6862 66.0381 83.4629 66.1885C83.2396 66.3343 82.973 66.4072 82.6631 66.4072C82.3486 66.4072 82.0798 66.3343 81.8564 66.1885C81.6377 66.0381 81.5283 65.7692 81.5283 65.3818C81.5283 64.9899 81.6377 64.7233 81.8564 64.582C82.0798 64.4362 82.3486 64.3633 82.6631 64.3633ZM87.9814 75H85.8965V64.3633H87.9814V75ZM92.2607 67.3574V75H90.1758V67.3574H92.2607ZM91.2217 64.3633C91.5316 64.3633 91.7982 64.4362 92.0215 64.582C92.2448 64.7233 92.3564 64.9899 92.3564 65.3818C92.3564 65.7692 92.2448 66.0381 92.0215 66.1885C91.7982 66.3343 91.5316 66.4072 91.2217 66.4072C90.9072 66.4072 90.6383 66.3343 90.415 66.1885C90.1963 66.0381 90.0869 65.7692 90.0869 65.3818C90.0869 64.9899 90.1963 64.7233 90.415 64.582C90.6383 64.4362 90.9072 64.3633 91.2217 64.3633ZM96.875 75.1367C96.0228 75.1367 95.3278 74.804 94.79 74.1387C94.2568 73.4688 93.9902 72.4867 93.9902 71.1924C93.9902 69.8844 94.2614 68.8955 94.8037 68.2256C95.346 67.5511 96.0547 67.2139 96.9297 67.2139C97.2943 67.2139 97.6156 67.264 97.8936 67.3643C98.1715 67.4645 98.4108 67.599 98.6113 67.7676C98.8164 67.9362 98.9896 68.1253 99.1309 68.335H99.1992C99.1719 68.1891 99.1377 67.9749 99.0967 67.6924C99.0602 67.4053 99.042 67.1113 99.042 66.8105V64.3633H101.134V75H99.5342L99.1309 74.0088H99.042C98.9098 74.2184 98.7435 74.4098 98.543 74.583C98.347 74.7516 98.1123 74.8861 97.8389 74.9863C97.5654 75.0866 97.2441 75.1367 96.875 75.1367ZM97.6064 73.4756C98.1761 73.4756 98.5771 73.307 98.8096 72.9697C99.0465 72.6279 99.1719 72.1152 99.1855 71.4316V71.2061C99.1855 70.4632 99.0716 69.8958 98.8438 69.5039C98.6159 69.1074 98.1921 68.9092 97.5723 68.9092C97.112 68.9092 96.752 69.1074 96.4922 69.5039C96.2324 69.9004 96.1025 70.4723 96.1025 71.2197C96.1025 71.9671 96.2324 72.5299 96.4922 72.9082C96.7565 73.2865 97.1279 73.4756 97.6064 73.4756ZM106.445 67.2002C107.471 67.2002 108.257 67.4235 108.804 67.8701C109.351 68.3167 109.624 68.9958 109.624 69.9072V75H108.168L107.765 73.9609H107.71C107.491 74.2344 107.268 74.4577 107.04 74.6309C106.812 74.804 106.55 74.9316 106.254 75.0137C105.958 75.0957 105.598 75.1367 105.174 75.1367C104.723 75.1367 104.317 75.0501 103.957 74.877C103.602 74.7038 103.321 74.4395 103.116 74.084C102.911 73.724 102.809 73.2682 102.809 72.7168C102.809 71.9056 103.093 71.3086 103.663 70.9258C104.233 70.5384 105.087 70.3242 106.227 70.2832L107.553 70.2422V69.9072C107.553 69.5062 107.448 69.2122 107.238 69.0254C107.029 68.8385 106.737 68.7451 106.363 68.7451C105.994 68.7451 105.632 68.7975 105.276 68.9023C104.921 69.0072 104.565 69.1393 104.21 69.2988L103.52 67.8906C103.925 67.6764 104.379 67.5078 104.88 67.3848C105.386 67.2617 105.908 67.2002 106.445 67.2002ZM107.553 71.459L106.746 71.4863C106.072 71.5046 105.602 71.6253 105.338 71.8486C105.078 72.0719 104.948 72.3659 104.948 72.7305C104.948 73.0495 105.042 73.2773 105.229 73.4141C105.415 73.5462 105.659 73.6123 105.96 73.6123C106.407 73.6123 106.783 73.4801 107.088 73.2158C107.398 72.9515 107.553 72.5755 107.553 72.0879V71.459ZM114.197 75.1367C113.345 75.1367 112.65 74.804 112.112 74.1387C111.579 73.4688 111.312 72.4867 111.312 71.1924C111.312 69.8844 111.584 68.8955 112.126 68.2256C112.668 67.5511 113.377 67.2139 114.252 67.2139C114.617 67.2139 114.938 67.264 115.216 67.3643C115.494 67.4645 115.733 67.599 115.934 67.7676C116.139 67.9362 116.312 68.1253 116.453 68.335H116.521C116.494 68.1891 116.46 67.9749 116.419 67.6924C116.382 67.4053 116.364 67.1113 116.364 66.8105V64.3633H118.456V75H116.856L116.453 74.0088H116.364C116.232 74.2184 116.066 74.4098 115.865 74.583C115.669 74.7516 115.435 74.8861 115.161 74.9863C114.888 75.0866 114.566 75.1367 114.197 75.1367ZM114.929 73.4756C115.498 73.4756 115.899 73.307 116.132 72.9697C116.369 72.6279 116.494 72.1152 116.508 71.4316V71.2061C116.508 70.4632 116.394 69.8958 116.166 69.5039C115.938 69.1074 115.514 68.9092 114.895 68.9092C114.434 68.9092 114.074 69.1074 113.814 69.5039C113.555 69.9004 113.425 70.4723 113.425 71.2197C113.425 71.9671 113.555 72.5299 113.814 72.9082C114.079 73.2865 114.45 73.4756 114.929 73.4756Z" fill="#393939"/>
<g filter="url(#filter0_d_8417_7755)">
<circle cx="17" cy="41" r="10" fill="white"/>
<circle cx="16.9999" cy="40.9999" r="6.66667" fill="#4FDB76"/>
<path d="M30.2583 49.4648L37.486 48.2649L33.5745 55.9979L30.2583 49.4648Z" fill="#393939"/>
</g>
<defs>
<filter id="filter0_d_8417_7755" x="3" y="31" width="38.4861" height="32.9979" filterUnits="userSpaceOnUse" color-interpolation-filters="sRGB">
<feFlood flood-opacity="0" result="BackgroundImageFix"/>
<feColorMatrix in="SourceAlpha" type="matrix" values="0 0 0 0 0 0 0 0 0 0 0 0 0 0 0 0 0 0 127 0" result="hardAlpha"/>
<feOffset dy="4"/>
<feGaussianBlur stdDeviation="2"/>
<feColorMatrix type="matrix" values="0 0 0 0 0 0 0 0 0 0 0 0 0 0 0 0 0 0 0.25 0"/>
<feBlend mode="normal" in2="BackgroundImageFix" result="effect1_dropShadow_8417_7755"/>
<feBlend mode="normal" in="SourceGraphic" in2="effect1_dropShadow_8417_7755" result="shape"/>
</filter>
</defs>
</svg>
